<?xml version="1.0" encoding="utf-8"?>
<!-- Generator: Adobe Illustrator 16.0.0, SVG Export Plug-In . SVG Version: 6.00 Build 0)  -->
<!DOCTYPE svg PUBLIC "-//W3C//DTD SVG 1.1//EN" "http://www.w3.org/Graphics/SVG/1.1/DTD/svg11.dtd">
<svg version="1.1"
	 id="svg2" sodipodi:docname="flames.svg" inkscape:version="0.91 r13725" xmlns:dc="http://purl.org/dc/elements/1.1/" xmlns:cc="http://creativecommons.org/ns#" xmlns:rdf="http://www.w3.org/1999/02/22-rdf-syntax-ns#" xmlns:svg="http://www.w3.org/2000/svg" xmlns:sodipodi="http://sodipodi.sourceforge.net/DTD/sodipodi-0.dtd" xmlns:inkscape="http://www.inkscape.org/namespaces/inkscape"
	 xmlns="http://www.w3.org/2000/svg" xmlns:xlink="http://www.w3.org/1999/xlink" x="0px" y="0px" width="2000px" height="600px"
	 viewBox="0 0 2000 600" enable-background="new 0 0 2000 600" xml:space="preserve">
<filter  style="color-interpolation-filters:sRGB" width="1.1020912" height="1.291346" id="filter4518" y="-0.14567298" x="-0.051045578" inkscape:collect="always">
	<feGaussianBlur  stdDeviation="42.616655" id="feGaussianBlur4520" inkscape:collect="always"></feGaussianBlur>
</filter>
<g id="layer1" transform="translate(0,-452.36216)" inkscape:label="Ref" sodipodi:insensitive="true" inkscape:groupmode="layer" display="none">
	
		<image display="inline" overflow="visible" enable-background="new    " width="500" height="386" id="image4300" xlink:href="59A3EE0F86A9F41E.jpeg"  transform="matrix(1.8216 0 0 1.8216 -1.4287 350.7909)">
	</image>
</g>
<rect y="-510.106" fill="none" width="2000" height="1000"/>
<g id="path4367" inkscape:connector-curvature="0" opacity="0.435" filter="url(#filter4518)" enable-background="new    ">
	<path fill="#FF5555" d="M27.827,56.874c1.372,21.672,1,30.8-8.324,52.837l-0.249,425.307l1968.422,0.445V134.046
		c-2.158-26.717-21.69-44.362-18.662-77.172c0.326-3.551,0.675-7.07,1.02-10.551h-52.181c1.323,4.376,2.256,10.143,2.719,18.581
		c0,0-1.365-5.396-6.625-7.91c-5.26-2.514-8.314,0.297-8.314,0.297s10.789,20.201,13.84,32.759
		c3.856,15.874,8.151,33.565,4.995,51.163c-3.156,17.598-9.118,22.626-5.962,39.596s0.764,22.992-2.103,32.68
		c-3.106,10.5-11.111,13.734-15.079,23.256c-3.068,7.362-6.313,25.14-6.313,25.14c-0.902,0.202,5.356-36.844,2.408-60.113
		c-1.507-11.9,0.749-29.134,10.218-39.19l9.467-10.055c0.019,0.22-7.062-3.632-10.602-2.768c-2.123,0.519-5.881,4.654-5.881,4.654
		s10.857-22.045,12.274-35.826c1.487-14.466,0-29.539-4.559-43.366c-3.318-10.065-10.127-22.715-13.608-28.896h-0.842
		c2.698,7.904,8.596,26.725,7.788,38.325c-0.924,13.268-4.911,21.998-12.977,32.682s-14.025,20.111-15.429,37.081
		c-1.402,16.969-2.455,24.511-2.455,24.511c-8.371-27.588-4.974-32.543,5.61-55.307c0,0-15.192,11.464-19.288,23.253
		c-5.951,17.133-5.28,39.854-4.551,59.994c0.399,11.025,3.932,21.062,4.843,31.988c2.178,26.121,2.455,61.594,1.402,79.191
		c-1.052,17.599-1.694,31.518-1.694,31.518s-3.579-11.691-6.311-16.027c-9.132-14.496-11.885-19.886-16.133-39.91
		c-4.721-22.258-4.672-29.271-4.733-44.309c-0.021-5.424,1.579-16.026,1.579-16.026s-7.453,12.796-9.469,21.054
		c-2.249,9.216-2.808,12.755-2.454,29.854l0.35,16.969c0,0-11.536-39.469-18.762-57.507c-3.185-7.949-10.796-24.156-20.513-25.768
		l-9.47-1.571c0,0,9.645,10.37,9.47,29.538c-0.176,19.17-0.352,19.484-0.352,19.484c-0.957-1.633-2.609-21.256-6.664-28.597
		c-5.728-10.372-16.193-7.931-22.443-17.284c-4.467-6.685-8.767-10.37-9.644-26.082s2.63-28.912,3.682-38.025
		c1.053-9.113-0.525-16.34-0.525-16.34s1.404,9.112-4.382,24.824c-5.787,15.712-11.487,35.126-9.82,53.736
		c1.483,16.569,4.811,27,16.658,40.538c12.159,13.895,13.483,15.021,13.675,21.057c0.329,10.355-7.889,19.423-13.675,19.168
		c-4.557-0.2-11.223,0-10.346-16.026c0.876-16.027,1.577-20.112,1.577-20.112s-8.273,16.724-11.572,31.111
		c-5.283,23.042-2.758,26.751,0.177,39.596c5.797,25.371,23.645,43.619,23.144,71.021c-0.263,14.402-6.298,29.416-13.5,35.823
		c-8.546,7.604-20.789,7.04-28.581-2.828c-8.174-10.351-12.002-28.589-11.572-49.651c0.267-13.047,5.61-30.482,5.61-30.482
		s-7.566,10.749-10.597,17.4c-4.573,10.035-11.16,33.33-11.16,33.33c2.044-37.123,2.128-71.212-9.67-90.66
		c-11.718-19.316-20.83-24.888-20.83-24.888s10.91,19.11,14.878,35.108c3.968,15.999,3.912,35.875-2.727,45.33
		c-5.931,8.449-19.343,4.889-22.566-4.888c-3.224-9.777-2.479-15.999-1.239-25.332c1.239-9.333,5.704-35.996-2.479-46.662
		c-8.661-10.204-24.391-3.408-22.814,15.553c0.709,5.62,5.952,15.555,5.952,15.555s-2.406-9.96-0.744-14.665
		c1.818-5.151,11.978-12.976,13.143,6.222c1.104,18.163-4.463,24.442-7.191,33.33c-16.716,22.279-28.509-21.439-25.292-34.22
		c4.291-31.906,17.018-45.379,32.483-53.328c0,0-22.514,4.922-32.483,13.776c-5.368,4.767-13.887,20.442-13.887,20.442
		s-1.165-29.979-5.951-41.33c-7.505-17.797-20.391-26.921-32.235-33.775c-5.769-3.338-18.102-3.11-18.102-3.11
		c21.301,23.184,24.765,64.667,20.086,92.881c-7.439,42.664-15.375,66.218-15.375,66.218c-5.989-16.817-9.203-40.222-3.224-53.773
		c-14.221,5.854-19.76,47.037-18.102,61.772c2.232,24.442,8.571,32.934,7.687,50.219c-0.52,10.16-2.294,23.186-7.438,27.555
		c-5.453,4.632-14.707,1.931-17.604-7.556c-4.118-13.479-1.134-30.699,8.429-43.553c0,0-10.778,2.759-14.628,8.889
		c-5.888,9.373-5.662,26.645-10.168,38.221c-2.775,7.131-10.167,18.664-10.167,18.664s7.562-22.616,9.67-35.108
		c3.354-19.874,9.177-33.775,4.465-61.774c-5.174-30.31-10.708-45.98-26.781-57.328c20.205,36.216-10.183,53.634-15.621,20.443
		c-2.231-15.11-7.675-43.149-7.191-65.329c0.42-19.215,3.859-38.371,8.679-55.552c2.912-10.377,11.902-27.555,11.902-27.555
		s-18.243,21.812-24.984,36.92c-7.933,17.782-14.808,38.6-17.184,60.965c-2.636,24.8-0.189,53.951,3.858,75.419
		c4.029,21.369,5.154,44.657,4.208,65.364c-0.995,21.781-10.17,35.195-26.651,28.91c-16.482-6.285-18.938-31.426-11.223-47.767
		s17.885-1.256,17.885-1.256s-0.001-14.455-9.118-27.025c-9.118-12.57-18.585-11.312-24.547-3.771
		c-5.961,7.542-9.819,24.512-9.819,24.512c1.467-16.059-12.855-21.499-13.326-35.826c-0.455-13.843,1.601-23.004,10.521-37.081
		c-14.102,4.381-32.354,31.675-28.405,58.451c7.81,50.527,15.872,91.844-17.182,93.017c13.838-13.062,16.463-46.036,4.559-55.936
		c-9.117-6.914-18.236-6.285-18.236-6.285c34.485,36.407-21.031,72.024-44.184,60.965c-7.742-3.697-11.574-6.913-11.574-6.913
		c12.273-4.22,16.285-10.557,22.443-16.343c0,0-18.234,5.029-24.547,2.516c-17.837-10.925-14.217-63.94-2.104-76.677
		c0,0-14.026,13.197-16.131,28.909c-2.104,15.713-3.856,22.627-3.856,22.627s2.898-30.017,1.273-44.623
		c-1.468-13.2-4.711-26.379-9.691-36.454c-4.773-9.657-18.235-20.739-18.235-20.739s15.433,24.673,16.133,41.48
		c0.488,11.725-1.368,29.095-8.732,31.608c-21.081-6.753-3.839-56.505-18.973-66.175c-4.099-2.619-10.101-1.252-12.761,4.92
		c-2.302,5.339,0.486,20.22,0.486,20.22c1.894-12.478,4.568-13.392,7.564-11.097c4.364,3.343,7.42,14.785,1.094,25.443
		c-6.316,10.641-14.373,8.938-19.176,1.365c-5.991-9.447-5.873-30.131-2.105-42.737c4.149-13.884,23.145-22.625,23.145-22.625
		c-26.418-6.641-28.239,21.057-35.77,25.14c0,0-2.926-28.015-10.279-40.27s-21.587-22.226-33.307-22.226
		c0,0,8.519,4.043,12.727,31.697c4.208,27.653,4.559,50.28-0.351,67.879l-9.818,35.194c0,0-3.609-25.89-2.806-38.877
		c0.564-9.118,5.26-25.858,5.26-25.858s-7.526,5.029-11.384,29.541c-3.857,24.511-3.508,27.652-3.508,27.652l-4.062-19l0.205,1.402
		c0,0-3.857-21.997,0-43.994s-8.416-40.225-8.416-40.225s1.653,15.453,0.35,22.627c-2.606,14.344-11.571,20.739-15.429,35.823
		s3.506,32.054,3.506,32.054s-5.064,2.395-11.221-9.427c-6.157-11.82-15.55-44.839-15.08-69.763
		c0.467-24.729,10.871-37.711,17.534-67.25c6.662-29.54-1.754-79.818-1.754-79.818s-7.014,35.824-11.923,50.279
		c-4.91,14.456-16.131,16.341-24.547,31.425s-9.82,35.195-9.82,35.195s3.477-44.895,0-65.991
		c-3.352-20.342-10.597-39.024-19.287-53.423c-5.952-9.863-21.39-20.741-21.39-20.741s7.014,13.828,13.325,29.541
		c7.624,19.925,7.329,60.191-2.104,87.36c-4.787,12.753-15.795,16.424-19.989,27.654s-5.26,34.566-5.26,34.566
		c-1.849,1.242-10.878-38.569-1.052-71.649c8.037-27.053,10.521-37.081,10.521-37.081s-2.104,3.771-13.325,19.484
		c-11.222,15.712-15.73,30.389-18.587,49.65c-2.528,17.051,1.754,42.109,2.104,52.794c0.352,10.685-1.403,21.369-7.015,38.339
		c-5.61,16.969-4.208,36.452-4.208,36.452s-3.155-17.598-4.207-28.91c-1.053-11.313-15.78-34.568-15.78-34.568
		s4.695,16.74,5.26,25.858c0.804,12.987-2.806,38.877-2.806,38.877l-9.82-35.194c-4.909-17.599-4.557-40.226-0.349-67.879
		c4.208-27.654,12.727-31.697,12.727-31.697c-11.72,0-25.953,9.971-33.308,22.226c-7.354,12.255-10.28,40.27-10.28,40.27
		c-7.53-4.083-9.352-31.78-35.769-25.14c0,0,18.996,8.741,23.146,22.625c3.768,12.606,3.886,33.29-2.105,42.737
		c-4.803,7.573-12.859,9.275-19.176-1.365c-6.326-10.658-3.271-22.101,1.094-25.443c2.996-2.295,5.669-1.381,7.562,11.097
		c0,0,2.791-14.881,0.49-20.22c-2.661-6.172-8.663-7.539-12.762-4.92c-15.134,9.67,2.108,59.422-18.973,66.175
		c-7.364-2.514-9.221-19.884-8.732-31.608c0.7-16.808,16.131-41.48,16.131-41.48s-13.462,11.082-18.235,20.739
		c-4.98,10.075-8.222,23.254-9.689,36.454c-1.625,14.606,1.273,44.623,1.273,44.623s-1.752-6.914-3.856-22.627
		c-2.104-15.712-16.131-28.909-16.131-28.909c12.112,12.736,15.732,65.752-2.104,76.677c-6.312,2.514-24.549-2.516-24.549-2.516
		c6.158,5.786,10.17,12.123,22.443,16.343c0,0-3.83,3.216-11.571,6.913c-23.153,11.06-78.67-24.558-44.186-60.965
		c0,0-9.117-0.629-18.235,6.285c-11.903,9.899-9.279,42.873,4.559,55.936c-33.054-1.173-24.993-42.489-17.184-93.017
		c3.949-26.776-14.304-54.07-28.405-58.451c8.92,14.077,10.976,23.238,10.521,37.081c-0.471,14.327-14.793,19.768-13.325,35.826
		c0,0-3.857-16.97-9.818-24.512c-5.962-7.542-15.431-8.8-24.549,3.771c-9.117,12.57-9.117,27.025-9.117,27.025
		s10.169-15.085,17.884,1.256s5.262,41.481-11.221,47.767c-16.481,6.285-25.655-7.129-26.651-28.91
		c-0.946-20.707,0.18-43.995,4.208-65.364c4.048-21.468,6.492-50.619,3.856-75.419c-2.376-22.365-9.248-43.184-17.182-60.965
		c-6.741-15.109-24.986-36.92-24.986-36.92s8.992,17.178,11.904,27.555c4.819,17.181,8.259,36.337,8.678,55.552
		c0.484,22.18-4.959,50.219-7.191,65.329c-5.438,33.19-35.827,15.772-15.622-20.443c-16.073,11.348-21.605,27.019-26.779,57.328
		c-4.712,27.999,1.109,41.9,4.463,61.774c2.107,12.492,9.67,35.108,9.67,35.108s-7.39-11.533-10.165-18.664
		c-4.506-11.576-4.28-28.848-10.168-38.221c-3.85-6.13-14.63-8.889-14.63-8.889c9.562,12.854,12.548,30.074,8.431,43.553
		c-2.897,9.486-12.151,12.188-17.604,7.556c-5.145-4.369-6.919-17.395-7.438-27.555c-0.885-17.285,5.454-25.776,7.687-50.219
		c1.658-14.735-3.881-55.919-18.102-61.772c5.979,13.552,2.766,36.956-3.224,53.773c0,0-7.936-23.554-15.375-66.218
		c-4.679-28.214-1.215-69.697,20.086-92.881c0,0-12.333-0.228-18.102,3.11c-11.845,6.854-24.73,15.979-32.235,33.775
		c-4.786,11.352-5.951,41.33-5.951,41.33s-8.519-15.676-13.887-20.442c-9.97-8.854-32.483-13.776-32.483-13.776
		c15.466,7.949,28.192,21.422,32.483,53.328c3.217,12.78-8.576,56.499-25.292,34.22c-2.729-8.888-8.295-15.167-7.191-33.33
		c1.165-19.197,11.324-11.373,13.143-6.222c1.662,4.705-0.744,14.665-0.744,14.665s5.241-9.935,5.95-15.555
		c1.575-18.961-14.151-25.757-22.812-15.553c-8.183,10.666-3.719,37.329-2.479,46.662c1.239,9.333,1.982,15.555-1.241,25.332
		c-3.224,9.776-16.634,13.337-22.564,4.888c-6.639-9.455-6.694-29.331-2.727-45.33c3.967-15.998,14.878-35.108,14.878-35.108
		s-9.112,5.571-20.83,24.888c-11.798,19.448-11.714,53.537-9.671,90.66c0,0-6.586-23.295-11.159-33.33
		c-3.031-6.651-10.599-17.4-10.599-17.4s5.346,17.436,5.612,30.482c0.43,21.062-3.401,39.301-11.574,49.651
		c-7.792,9.868-20.033,10.432-28.58,2.828c-7.202-6.407-13.237-21.421-13.5-35.823c-0.5-27.401,17.347-45.649,23.144-71.021
		c2.935-12.845,5.46-16.554,0.177-39.596c-3.299-14.388-11.574-31.111-11.574-31.111s0.702,4.085,1.579,20.112
		c0.876,16.026-5.789,15.826-10.346,16.026c-5.786,0.255-14.006-8.812-13.677-19.168c0.192-6.036,1.518-7.162,13.677-21.057
		c11.847-13.537,15.175-23.968,16.659-40.538c1.667-18.61-4.034-38.024-9.82-53.736c-5.786-15.712-4.382-24.824-4.382-24.824
		s-1.58,7.227-0.527,16.34c1.052,9.113,4.559,22.312,3.682,38.025c-0.877,15.712-5.177,19.397-9.644,26.082
		c-6.25,9.353-16.716,6.912-22.444,17.284c-4.055,7.341-5.705,26.964-6.662,28.597c0,0-0.176-0.314-0.351-19.484
		c-0.175-19.168,9.469-29.538,9.469-29.538l-9.469,1.571c-9.717,1.612-17.331,17.819-20.515,25.768
		c-7.226,18.038-18.762,57.507-18.762,57.507l0.351-16.969c0.354-17.1-0.205-20.639-2.454-29.854
		c-2.015-8.258-9.469-21.054-9.469-21.054s1.601,10.603,1.579,16.026c-0.061,15.038-0.015,22.051-4.735,44.309
		c-4.248,20.024-6.999,25.414-16.131,39.91c-2.731,4.336-6.312,16.027-6.312,16.027s-0.641-13.919-1.692-31.518
		c-1.052-17.598-0.775-53.07,1.402-79.191c0.911-10.926,4.441-20.963,4.841-31.988c0.73-20.139,1.4-42.861-4.551-59.994
		c-4.096-11.789-19.288-23.253-19.288-23.253c10.584,22.763,13.982,27.719,5.612,55.307c0,0-1.053-7.542-2.456-24.511
		c-1.403-16.97-7.363-26.396-15.429-37.081c-8.066-10.685-12.053-19.415-12.977-32.682c-0.808-11.6,5.088-30.42,7.786-38.325h-0.84
		c-3.481,6.181-10.289,18.831-13.607,28.896c-4.559,13.827-6.046,28.899-4.559,43.366c1.417,13.781,12.272,35.826,12.272,35.826
		s-3.756-4.135-5.879-4.654c-3.538-0.865-10.619,2.987-10.601,2.768l9.467,10.055c9.468,10.056,11.723,27.29,10.215,39.19
		c-2.948,23.27,3.312,60.315,2.41,60.113c0,0-3.245-17.777-6.313-25.14c-3.968-9.521-11.973-12.756-15.079-23.256
		c-2.867-9.688-5.261-15.711-2.105-32.68s-2.806-21.998-5.961-39.596c-3.156-17.598,1.14-35.289,4.996-51.163
		c3.051-12.558,13.838-32.759,13.838-32.759s-3.054-2.812-8.313-0.297c-5.26,2.514-6.624,7.91-6.624,7.91
		c0.463-8.438,1.396-14.205,2.719-18.581h-52.18C26.809,46.323,27.501,53.323,27.827,56.874z"/>
</g>
<path id="path4345" sodipodi:nodetypes="ccscscsscsccsssscsscscssccccccscccccccsscsssssscsscccsccscssscccccsscscccsscccsssscscscsssscsccscssscscsscscsscscccsscsscsccssscsccscsscscssscsccsccccccscsssccccscccccscscsccscscsccscssssscsscscsscsssccsssscssscsscsscscsssscsssssscsssssscscscsssscccsscccscsscccccssscsscscccsscsssssscsscscccccsccccscsscscsscssssccscsscscscsssscscscccsscsscssscsscsc" inkscape:connector-curvature="0" fill="#FF0000" d="
	M1078.005,410.882l4.138,10.798c0,0-0.356-1.786,3.572-15.715c3.928-13.929,11.594-16.785,11.594-16.785s-4.782,9.512-5.357,14.693
	c-0.818,7.38,2.857,22.092,2.857,22.092l10-20c5-10,4.643-22.857,0.357-38.571c-4.286-15.714-12.962-18.013-12.962-18.013
	c11.936,0,26.432,5.666,33.921,12.63s10.47,22.883,10.47,22.883c7.669-2.32,9.524-18.059,36.429-14.286
	c0,0-19.346,4.968-23.572,12.857c-3.837,7.164-3.958,18.918,2.144,24.286c4.892,4.304,13.098,5.271,19.53-0.775
	c6.443-6.057,3.33-12.56-1.114-14.46c-3.052-1.304-5.774-0.784-7.702,6.307c0,0-2.842-8.456-0.497-11.49
	c2.709-3.507,8.823-4.284,12.997-2.796c15.413,5.495-2.148,33.768,19.322,37.604c7.5-1.429,9.39-11.299,8.893-17.961
	c-0.713-9.551-16.429-23.572-16.429-23.572s13.709,6.298,18.571,11.786c5.072,5.725,8.375,13.213,9.87,20.714
	c1.654,8.301-1.299,25.357-1.299,25.357s1.786-3.929,3.929-12.857c2.143-8.928,16.429-16.428,16.429-16.428
	c-12.336,7.237-16.023,37.363,2.143,43.571c6.429,1.429,25-1.429,25-1.429c-6.271,3.288-10.357,6.888-22.857,9.285
	c0,0,3.901,1.827,11.786,3.929c23.58,6.284,80.12-13.954,45-34.643c0,0,9.285-0.357,18.571,3.571
	c12.123,5.626,9.45,24.363-4.643,31.786c33.663-0.667,25.453-24.146,17.5-52.857c-4.022-15.215,14.567-30.725,28.929-33.215
	c-9.084,8-11.178,13.206-10.715,21.072c0.479,8.141,15.065,11.231,13.571,20.356c0,0,3.929-9.643,10-13.929
	c6.071-4.285,15.715-5,25,2.144c9.286,7.143,9.286,15.356,9.286,15.356s-10.357-8.571-18.215,0.715
	c-7.856,9.285-5.356,23.571,11.429,27.143c16.786,3.571,26.129-4.051,27.143-16.429c0.964-11.767-0.183-25-4.285-37.143
	c-4.122-12.199-6.612-28.765-3.929-42.857c2.42-12.709,9.42-24.538,17.5-34.643c6.865-8.586,25.445-20.98,25.445-20.98
	s-9.156,9.761-12.121,15.657c-4.909,9.763-8.412,20.649-8.839,31.567c-0.493,12.604,5.05,28.537,7.323,37.123
	c5.538,18.86,36.487,8.963,15.91-11.616c16.369,6.448,22.004,15.354,27.273,32.577c4.799,15.91-1.13,23.81-4.545,35.103
	c-2.147,7.1-9.85,19.951-9.85,19.951s7.527-6.555,10.354-10.607c4.589-6.577,4.358-16.392,10.354-21.718
	c3.921-3.483,14.9-5.051,14.9-5.051c-9.739,7.304-12.78,17.09-8.587,24.749c2.951,5.391,12.377,6.925,17.931,4.293
	c5.239-2.483,7.047-9.884,7.576-15.657c0.9-9.823-5.556-14.647-7.829-28.537c-1.688-8.373,3.952-31.776,18.436-35.103
	c-6.09,7.7-2.816,21,3.283,30.557c0,0,8.081-13.384,15.657-37.628c4.765-16.032,1.237-39.606-20.456-52.78
	c0,0,12.561-0.129,18.436,1.768c12.062,3.895,25.188,9.08,32.83,19.193c4.875,6.45,6.061,23.485,6.061,23.485
	s8.676-8.908,14.143-11.616c10.154-5.031,33.082-7.829,33.082-7.829c-15.751,4.517-28.712,12.174-33.082,30.305
	c-3.275,7.262,8.734,32.105,25.759,19.445c2.778-5.051,8.446-8.619,7.323-18.94c-1.187-10.908-11.531-6.462-13.385-3.535
	c-1.691,2.674,0.758,8.334,0.758,8.334s-5.339-5.646-6.061-8.839c-1.604-10.775,14.413-14.638,23.233-8.839
	c8.334,6.061,3.788,21.213,2.525,26.516c-1.263,5.304-2.021,8.84,1.263,14.396s16.94,7.578,22.98,2.777
	c6.762-5.373,6.819-16.667,2.778-25.759c-4.04-9.092-15.152-19.95-15.152-19.95s9.28,3.166,21.214,14.142
	c12.016,11.052,11.93,30.423,9.849,51.518c0,0,6.707-13.237,11.364-18.939c3.086-3.779,10.794-9.888,10.794-9.888
	s-5.443,9.907-5.715,17.321c-0.438,11.969,3.462,22.333,11.786,28.215c7.936,5.607,20.403,5.928,29.107,1.606
	c7.334-3.641,13.481-12.173,13.75-20.356c0.509-15.571-17.668-25.94-23.572-40.357c-2.988-7.299-5.559-9.406-0.178-22.5
	c3.359-8.176,11.785-17.679,11.785-17.679s-0.714,2.321-1.607,11.429c-0.893,9.107,5.896,8.993,10.536,9.107
	c5.893,0.145,14.264-5.009,13.929-10.894c-0.195-3.43-1.545-4.068-13.929-11.964c-12.065-7.692-15.453-13.62-16.964-23.036
	c-1.697-10.575,4.106-21.606,10-30.535c5.893-8.929,4.464-14.107,4.464-14.107s1.607,4.107,0.536,9.286
	c-1.072,5.178-4.644,12.678-3.75,21.606c0.893,8.929,5.271,11.023,9.821,14.821c6.365,5.315,17.023,3.928,22.856,9.822
	c4.13,4.172,5.812,15.322,6.786,16.25c0,0,0.179-0.179,0.356-11.072c0.179-10.893-9.643-16.785-9.643-16.785l9.643,0.893
	c9.896,0.916,17.65,10.126,20.894,14.643c7.358,10.25,19.106,32.679,19.106,32.679l-0.356-9.643
	c-0.36-9.717,0.209-11.728,2.5-16.964c2.053-4.693,9.643-11.965,9.643-11.965s-1.629,6.024-1.606,9.107
	c0.062,8.545,0.014,12.531,4.821,25.179c4.325,11.379,7.128,14.44,16.429,22.679c2.781,2.464,6.428,9.106,6.428,9.106
	s0.653-7.909,1.725-17.909s0.789-30.157-1.429-45c-0.928-6.209-4.524-11.912-4.931-18.178c-0.744-11.444-1.427-24.355,4.635-34.092
	c4.171-6.698,19.644-13.214,19.644-13.214c-10.779,12.936-14.239,15.752-5.715,31.429c0,0,1.071-4.285,2.5-13.929
	c1.429-9.643,7.5-15,15.715-21.071c8.214-6.071,12.273-11.032,13.214-18.571c1.06-8.489-9.285-23.929-9.285-23.929
	s11.428,10.715,16.071,18.571c4.643,7.857,6.157,16.423,4.643,24.644c-1.443,7.83-12.5,20.356-12.5,20.356s3.826-2.349,5.988-2.644
	c3.604-0.492,10.816,1.697,10.798,1.572l-9.644,5.715c-9.643,5.714-11.939,15.506-10.403,22.269
	c3.002,13.224-3.373,34.274-2.453,34.159c0,0,3.304-10.102,6.429-14.285c4.041-5.411,12.193-7.248,15.356-13.215
	c2.92-5.505,5.357-8.929,2.144-18.571c-3.215-9.643,2.856-12.5,6.071-22.5c3.214-10-1.159-20.052-5.087-29.073
	c-3.106-7.135-14.095-18.614-14.095-18.614s3.11-1.599,8.467-0.169c5.357,1.428,6.746,4.494,6.746,4.494
	c-1.782-18.105-10.313-14.675-21.746-28.066c-11.614-11.685-25.436-47.292-5.522-78.015c19.935-30.757,37.195-26.394,37.195-26.394
	s-3.771-0.773-4.911,5.18c-0.994,5.19,0.357,9.53,2.084,10.669c0.382,3.357-2.803-7.934,25.064-2.715
	c19.312,3.617,20.301,29.795,20.941,30.166c0-0.003-10.867-7.477-16.274-9.02c-22.349-6.375-22.516,9.293-22.302,8.979
	c2.242-3.301,19.301,0.374,19.583,11.152c0.406,15.528-9.193,18.071-9.193,18.071c0.02,0.019,5.235-15.988-10.25-13.963
	c-18.678,2.591-14.166,30.875,7.898,36.564c22.428,0.251,0.771-13.52,0.771-13.52c3.259,2.037,12.228-4.589,23.85,7.612
	c8.64,9.07,4.659,23.479,2.148,38.738c-3.084,18.645,16.809,28.67,19.007,43.853V600.02L-2.669,599.767l0.252-349.56
	c9.495-12.522,9.875-17.71,8.478-30.024c-2.511-15.259-6.492-29.668,2.148-38.738c11.622-12.201,20.591-5.575,23.851-7.612
	c0,0-21.657,13.771,0.771,13.52c22.064-5.689,26.576-33.973,7.898-36.564c-15.485-2.024-10.269,13.982-10.25,13.964
	c0,0-9.599-2.543-9.193-18.071c0.282-10.778,17.341-14.453,19.583-11.152c0.213,0.314,0.046-15.354-22.302-8.979
	c-5.407,1.542-16.271,9.017-16.274,9.02c0.641-0.37,1.628-26.548,20.942-30.166c27.867-5.219,24.682,6.071,25.064,2.715
	c1.726-1.139,3.078-5.479,2.083-10.669c-1.141-5.953-4.911-5.18-4.911-5.18s17.261-4.363,37.196,26.394
	c19.913,30.723,6.091,66.331-5.523,78.015c-11.432,13.392-19.963,9.96-21.746,28.066c0,0,1.389-3.066,6.746-4.494
	c5.357-1.43,8.467,0.169,8.467,0.169s-10.987,11.479-14.094,18.614c-3.927,9.021-8.301,19.073-5.087,29.073
	c3.214,10,9.286,12.857,6.072,22.5s-0.776,13.066,2.143,18.571c3.164,5.967,11.316,7.804,15.357,13.215
	c3.125,4.184,6.429,14.285,6.429,14.285c0.919,0.115-5.455-20.937-2.453-34.159c1.535-6.763-0.761-16.555-10.404-22.269
	l-9.643-5.715c-0.019,0.125,7.194-2.064,10.797-1.572c2.162,0.295,5.989,2.644,5.989,2.644s-11.057-12.526-12.5-20.356
	c-1.515-8.221,0-16.786,4.643-24.644c4.643-7.856,16.072-18.571,16.072-18.571s-10.345,15.438-9.286,23.929
	c0.941,7.539,5,12.5,13.214,18.571s14.286,11.429,15.714,21.071c1.429,9.644,2.5,13.929,2.5,13.929
	c8.524-15.677,5.065-18.493-5.714-31.429c0,0,15.472,6.516,19.643,13.214c6.062,9.736,5.379,22.647,4.635,34.092
	c-0.407,6.266-4.003,11.969-4.931,18.178c-2.218,14.843-2.5,35-1.429,45S120,386.5,120,386.5s3.647-6.643,6.429-9.106
	c9.3-8.238,12.103-11.3,16.428-22.679c4.808-12.647,4.759-16.634,4.822-25.179c0.022-3.083-1.607-9.107-1.607-9.107
	s7.59,7.271,9.643,11.965c2.291,5.236,2.86,7.247,2.5,16.964L157.857,359c0,0,11.748-22.429,19.107-32.679
	c3.243-4.517,10.997-13.727,20.893-14.643l9.643-0.893c0,0-9.821,5.894-9.643,16.786c0.179,10.893,0.357,11.071,0.357,11.071
	c0.974-0.928,2.656-12.078,6.786-16.25c5.833-5.894,16.492-4.507,22.857-9.821c4.55-3.799,8.929-5.893,9.822-14.821
	c0.893-8.929-2.679-16.429-3.75-21.607c-1.072-5.179,0.536-9.285,0.536-9.285s-1.429,5.178,4.464,14.106
	c5.893,8.929,11.697,19.961,10,30.536c-1.511,9.415-4.899,15.343-16.964,23.035c-12.384,7.896-13.733,8.535-13.929,11.965
	c-0.335,5.885,8.036,11.037,13.929,10.893c4.641-0.114,11.429,0,10.536-9.107c-0.893-9.106-1.607-11.428-1.607-11.428
	s8.426,9.503,11.786,17.678c5.381,13.094,2.81,15.202-0.179,22.5c-5.903,14.417-24.081,24.787-23.571,40.357
	c0.268,8.185,6.416,16.716,13.75,20.357c8.704,4.32,21.171,4,29.107-1.607c8.324-5.882,12.224-16.246,11.786-28.214
	c-0.271-7.415-5.714-17.321-5.714-17.321s7.708,6.107,10.794,9.887c4.657,5.703,11.364,18.94,11.364,18.94
	c-2.081-21.096-2.167-40.466,9.849-51.518c11.934-10.977,21.213-14.143,21.213-14.143s-11.111,10.859-15.152,19.95
	c-4.04,9.092-3.982,20.386,2.778,25.76c6.041,4.801,19.698,2.777,22.98-2.778c3.283-5.556,2.525-9.091,1.263-14.395
	s-5.808-20.456,2.525-26.517c8.821-5.798,24.839-1.936,23.234,8.839c-0.723,3.193-6.062,8.839-6.062,8.839s2.45-5.66,0.758-8.334
	c-1.853-2.927-12.197-7.373-13.385,3.536c-1.123,10.32,4.546,13.89,7.324,18.94c17.023,12.659,29.034-12.184,25.759-19.446
	c-4.37-18.131-17.332-25.787-33.083-30.304c0,0,22.929,2.797,33.083,7.828c5.466,2.709,14.142,11.617,14.142,11.617
	s1.187-17.036,6.062-23.486c7.643-10.113,20.767-15.298,32.83-19.193c5.874-1.896,18.435-1.768,18.435-1.768
	c-21.692,13.175-25.22,36.748-20.455,52.781c7.576,24.243,15.657,37.628,15.657,37.628c6.1-9.557,9.373-22.856,3.283-30.558
	c14.483,3.326,20.124,26.729,18.435,35.104c-2.272,13.889-8.729,18.714-7.828,28.536c0.529,5.774,2.337,13.175,7.576,15.657
	c5.554,2.632,14.979,1.098,17.93-4.293c4.193-7.659,1.152-17.444-8.586-24.749c0,0,10.979,1.568,14.899,5.051
	c5.996,5.327,5.766,15.141,10.354,21.719c2.827,4.052,10.354,10.606,10.354,10.606s-7.702-12.852-9.849-19.95
	c-3.415-11.294-9.344-19.193-4.546-35.103c5.27-17.224,10.904-26.13,27.274-32.578c-20.577,20.58,10.372,30.478,15.91,11.617
	c2.272-8.586,7.816-24.52,7.323-37.123c-0.427-10.919-3.93-21.805-8.839-31.567c-2.965-5.897-12.122-15.657-12.122-15.657
	s18.58,12.395,25.446,20.979c8.079,10.104,15.079,21.935,17.5,34.644c2.684,14.092,0.193,30.657-3.929,42.856
	c-4.104,12.144-5.25,25.377-4.286,37.144c1.014,12.377,10.357,20,27.144,16.429c16.785-3.572,19.285-17.857,11.428-27.144
	c-7.856-9.286-18.214-0.714-18.214-0.714s0-8.215,9.285-15.357c9.286-7.143,18.929-6.429,25-2.143c6.072,4.285,10,13.928,10,13.928
	c-1.493-9.125,13.093-12.216,13.572-20.356c0.463-7.866-1.631-13.072-10.715-21.071c14.361,2.489,32.95,17.999,28.929,33.214
	c-7.953,28.712-16.163,52.19,17.5,52.857c-14.093-7.423-16.767-26.16-4.643-31.786c9.285-3.929,18.571-3.571,18.571-3.571
	c-35.12,20.688,21.42,40.927,45,34.643c7.885-2.101,11.785-3.929,11.785-3.929c-12.499-2.397-16.585-5.997-22.856-9.285
	c0,0,18.571,2.857,25,1.429c18.166-6.208,14.479-36.334,2.143-43.571c0,0,14.286,7.5,16.429,16.429
	c2.143,8.928,3.929,12.856,3.929,12.856s-2.953-17.057-1.299-25.356c1.495-7.502,4.798-14.99,9.87-20.715
	c4.862-5.488,18.571-11.785,18.571-11.785s-15.716,14.021-16.429,23.571c-0.497,6.662,1.393,16.533,8.893,17.961
	c21.47-3.837,3.909-32.109,19.322-37.604c4.174-1.488,10.288-0.711,12.997,2.796c2.344,3.034-0.497,11.49-0.497,11.49
	c-1.928-7.091-4.651-7.61-7.702-6.306c-4.445,1.899-7.558,8.402-1.115,14.459c6.434,6.046,14.64,5.079,19.531,0.775
	c6.102-5.368,5.979-17.122,2.143-24.286c-4.226-7.89-23.571-12.856-23.571-12.856c26.904-3.773,28.76,11.965,36.429,14.285
	c0,0,2.98-15.919,10.469-22.883c7.489-6.964,21.985-12.63,33.922-12.63c0,0-8.676,2.299-12.962,18.013
	c-4.286,15.715-4.643,28.571,0.357,38.571l10,20c0,0,3.676-14.712,2.856-22.092c-0.574-5.182-5.356-14.693-5.356-14.693
	s15,13.214,16.071,19.643s4.285,16.429,4.285,16.429s-1.428-11.071,4.286-20.715c5.714-9.643,7.5-15.714,7.143-21.785
	c-0.356-6.071-4.718-20.312-2.143-30c2.909-10.945,7.5-19.286,18.929-28.215c11.429-8.928,13.571-11.071,13.571-11.071
	s-2.529,5.699-10.714,21.071c-10.009,18.798-0.812,41.421,1.071,40.715c0,0,1.085-13.261,5.356-19.643
	c4.271-6.383,15.482-8.468,20.357-15.715c9.607-15.438,9.907-38.32,2.143-49.643c-6.429-8.929-13.571-16.786-13.571-16.786
	s15.724,6.181,21.786,11.786c8.85,8.182,16.229,18.798,19.643,30.357c3.54,11.987,0,37.5,0,37.5s1.429-11.429,10-20
	c8.571-8.572,20-9.644,25-17.857c5-8.215,12.143-28.571,12.143-28.571s8.572,28.571,1.786,45.356
	c-6.786,16.786-17.383,24.162-17.857,38.215c-0.479,14.163,9.087,32.926,15.357,39.643c6.271,6.718,11.429,5.357,11.429,5.357
	s-7.5-9.643-3.572-18.215c3.929-8.571,13.061-12.206,15.715-20.356c1.327-4.077-0.357-12.857-0.357-12.857s12.5,10.357,8.572,22.857
	c-3.929,12.5,0,25,0,25"/>
<path id="path4362" sodipodi:nodetypes="ccccacssccascsscssscsccscssssccaccccaasascccscccssscsacscasscscscaccccacsaacaaaccsccscsssscsscczssscccsacsczcssscsscscacscaascscccascsacsscsscscccccaaccsssscascsascsscsacccscsaacscacscsscsssczcscascccssszccsscsssscsccsccaaacaascaccccacscscssacscascssscccscccsasaaccccaccsssscsccscssscsscsaccsscacccccccc" inkscape:connector-curvature="0" fill="#FF7F2A" d="
	M-2.54,336.376c14.011-16.464,16.563-23.828,12.642-39.422c-4.546-17.172-8.928-28.594,1.439-44.15
	c10.913-16.82,13.115-25.941-0.934-41.713c0.152-0.037,9.709,2.477,13.244,5.74c2.05,1.893,3.929,7.393,3.929,7.393
	s0-5.051,6.566-8.082c0,0,4.694-1.511,6.566-3.029c1.153-0.937,2.66-3.576,2.66-3.576c-4.689,0.867-5.851-2.379-7.857-4.643
	c0,0,4.251,0.885,6.071,0c1.906-0.927,3.929-0.357,3.929-5s-6.071-5-6.071-5s7.857-0.715,13.928-3.215
	c6.072-2.5,15.743-15.413,15.714-25.356c-0.063-21.912-5.962-32.077-20.714-42.143c0,0,19.66,4.977,27.5,22.143
	c8.178,17.906-1.022,36.839-5.536,43.929c-7.182,11.28-23.903,21.215-22.679,30.893c1.38,10.906,7.474,14.453,7.322,15
	c0,0-7.322-3.035-13.75,5.535c-6.429,8.572-3.214,19.286-0.714,22.144c6.798,11.456,8.045,14.136,2.679,26.607
	c0,0-0.536-11.965-3.75-12.679c-3.214-0.715-2.857,4.643-2.857,4.643s5.714,20,5.357,27.143c-0.357,7.144-4.643,10.715-0.357,21.429
	c4.286,10.715-2.5,18.215,11.071,32.857c13.572,14.643,23.572,19.643,35.357,11.786c11.786-7.857,14.643-24.644,14.643-31.429
	c-0.562-18.847-13.923-29.685-12.283-42.753c2.143-14.286,2.141-11.886,0.714-17.572c-1.579-6.291-9.877-16.768-9.877-16.768
	s20.566,12.518,20.566,22.161c-0.65,8.688-4.318,14.272,0.671,22.658c3.618-4.04,4.97-6.408,12.666-6.804
	c0,0-6.213,7.143-6.743,11.577c-0.839,7.03,5.782,13.281,6.072,20.356c0.447,10.941-2.857,21.429-6.786,32.144
	c-3.928,10.714-9.824,20.4-8.571,31.071c1.267,10.795,9.643,21.071,15.714,28.571s8.929,12.856,8.929,12.856
	c-1.492-21.663,23.338-37.166,18.658-57.117c-1.786-6.071-4.372-7.883-4.372-7.883s9.913,1.411,11.342,12.482
	s2.229,9.304,2.229,9.304c6.566-18.027,13.007-33.455,20.714-38.214c14.286-8.572,25-9.644,25-9.644s-10,4.286-11.786,7.144
	c-1.786,2.856-0.714,8.928,2.143,8.214c2.857-0.714,6.072-1.786,10.714-7.857c4.643-6.071,8.214-11.071,8.214-11.071
	s-1.429,10.715-9.643,21.786c-8.214,11.071-17.347,24.598-20.357,38.929c-1.447,6.89,1.429,21.071,1.429,21.071
	s15.357-7.857,25-18.215c9.643-10.356,25-36.785,25-36.785s-12.213,26.068-15.357,40c-3.391,15.025-13.116,33.981-3.571,46.071
	c14.638,18.542,52.19,26.592,70,11.071c11.372-9.91,2.519-26.966,0.357-25c0,0,10.661-2.716,16.969-0.548
	c3.69,1.268,14.603,8.806,14.571,8.806c0,0-12.125-16.141-3.911-29.712c8.215-13.571,13.441-16.403,13.441-16.403
	s-5.701,15.495-2.856,22.5c3.329,8.2,11.364,15.128,20.757,16.552c21.173-0.06,30.744-19.522,36.028-34.766
	c2.857-8.571,3.215-20,3.215-20s6.162,20.447,10.217,18.694c14.474-10.387,4.417-46.353,21.926-47.98
	c8.847-0.822,16.644,9.426,15.357,21.786c0,0-3.392-10.287-7.691-10.653c-17.403-1.48-11.625,28.172-4.809,39.582
	c4.523,7.572,15.834,10.112,24.643,9.643c6.699-0.357,17.857-9.285,17.857-9.285s-1.953,17.368,0,25.714
	c3.057,13.063,7.132,28.011,17.856,36.071c8.606,6.468,23.174,12.173,31.786,5.715c4.502-3.376,1.786-16.786,1.786-16.786
	l-3.302-7.334c0,0,11.516,16.62,15.802,20.548c4.285,3.929,6.785,6.429,6.785,6.429c-0.388-7.068,1.069-10.726-8.571-11.785
	c0,0,10.357-4.643,14.643,2.5c4.286,7.143,7.5,8.571,7.5,8.571s5.357-9.643-1.785-17.143c-3.194-3.354-7.53-5.422-11.732-7.993
	c-5.194-3.179-10.185-7.126-12.554-15.222c-4.285-14.643,8.929-15.357,8.571-28.214c-0.356-12.857-10.714-19.286-10.714-19.286
	s13.929,0,17.5,7.5s9.643,18.215,17.143,14.643c7.5-3.571,13.823-15.369,10.332-20.018c-6.854-15.909,1.91-32.526,16.097-40.339
	c0,0-10.146,11.654-11.429,18.929c-1.282,7.273,0.245,10.714,4.286,21.785c3.845,10.535-6.071,23.215-9.644,33.929
	c-3.571,10.715-0.714,24.286,7.857,29.643c8.571,5.357,18.929,9.286,18.929,9.286c-1.226-3.364-1.016-9.277,4.992-17.788
	c-4.047,9.194,8.986,25.557,12.865,19.574c2.143-3.929-2.144-16.072,8.571-20.715c10.714-4.643,13.505-2.925,16.063-8.398
	c1.988-4.253-2.997-13.763-2.997-13.763c-0.15,0.051,8.542,2.873,9.487,9.582c1.15,8.165,4.231,7.222,4.231,7.222
	c-0.786-8.24,4.43-11.713,5.09-16.606c0.659-4.894-0.446-11.965-0.446-11.965s7.929,3.597,6.857,16.454s-7.453,17.322,2.071,28.189
	c9.44,10.772,44.887,19.224,48.214,15.714c2.795-2.948,2.499-7.26-8.482-8.75c2.349-3.369,8.374-2.491,17.411,1.964
	c10.891,5.37,23.214-6.428,36.071,0.357c12.857,6.786,15.714,7.857,15.714,7.857s8.572-4.286,2.5-12.143
	c-6.071-7.857-8.571-10.536-8.571-10.536c10.918,6.173,17.251,2.884,25.446,5.804c3.599,1.281,10.269,5.089,10.269,5.089
	s-13.215-6.071-6.429-23.929c6.785-17.856,8.571-20,8.571-20c0.279,0.396-3.597,19.083,2.321,25
	c6.384,6.383,18.873,6.501,26.965,2.5c8.438-4.172,11.071-8.571,15-23.928c3.928-15.357,3.928-16.072,3.928-16.072
	s-2.5,7.144,2.857,13.929c5.357,6.786,5.715,5.715,5.715,5.715c-0.954-14.701,3.331-38.089,16.25-38.571
	c10.356,0,10.178,10.178,10.178,10.178c-12.256-13.134-15.557,10.61-14.643,18.394c1.059,9.011,7.857,17.857,21.429,16.785
	c13.571-1.071,14.551-3.848,19.643-7.856c-4.725,21.615,9.871,86.787,24.366,42.528c3.736-16.47,3.159-25.374,8.867-36.528
	c4.271-8.346,12.513-13.982,18.287-21.369c8.081-10.336,8.545-32.009,7.165-31.732c0,0,7.503,9.741,5.104,22.292
	c-2.466,12.908-8.9,17.956-8.333,27.526c0.087,1.468,1.768,4.041,1.768,4.041s1.515-11.112,13.637-16.415
	c12.122-5.304,13.638-6.819,17.678-11.112c4.041-4.293,3.147-12.979,1.633-19.797c-1.516-6.818-5.674-8.234-4.158-18.084
	c1.516-9.849,3.788-13.637,3.788-13.637c-0.884,15.426,4.422,21.079,8.081,28.284c4.041,8.081,3.166,13.471,6.462,19.458
	c1.309,2.378,3.009,4.64,5.155,6.301c1.906,1.476,6.565,3.03,6.565,3.03c-3.872-14.358-13.891-24.859-11.616-36.617
	c2.882-13.166,10.859-19.698,10.859-19.698s-4.659,3.412-3.941,18.328c3.223,20.443,22.137,26.606,30.205,43.796
	c1.719,3.639,2.525,6.566,3.283,11.617c0.757,5.051-2.525,12.627-2.525,12.627s5.556,3.535,12.627-3.03
	c7.07-6.566,12.374-14.9,13.132-25.76c0.758-10.858,0.253-15.152,0.253-15.152s6.818,20.456,3.535,34.851
	s-7.071,14.395-2.778,25.254s10.354,20.708,10.354,20.708c1.487-2.065,2.438-4.452,3.599-6.709
	c4.066-7.907,9.643-16.072,11.786-23.929c2.143-7.857-3.215-21.071-3.215-21.071s6.071,6.785,19.643,7.856
	c13.572,1.071,20.37-7.774,21.429-16.785c0.915-7.783-2.386-31.527-14.643-18.394c0,0-0.179-10.179,10.179-10.179
	c12.918,0.483,17.203,23.871,16.25,38.572c0,0,0.356,1.071,5.714-5.715c5.357-6.785,2.857-13.929,2.857-13.929s0,0.715,3.929,16.071
	c3.928,15.357,6.562,19.757,15,23.929c8.092,4.001,20.581,3.883,26.964-2.5c5.919-5.917,2.042-24.604,2.321-25
	c0,0,1.786,2.143,8.572,20c6.785,17.857-6.429,23.929-6.429,23.929s6.669-3.808,10.268-5.089c8.195-2.92,14.528,0.368,25.446-5.804
	c0,0-2.5,2.679-8.571,10.535c-6.071,7.857-11.051,39.428,1.806,32.643c14.75-28.5,28.608-12.88,39.5-18.25
	c8.079-5.265,9.805-23.336,25.492-11.672c-11.006,1.314-4.286,17.224-1.492,20.172c3.328,3.51,36.682-17.12,46.123-27.893
	c9.523-10.867,3.143-15.331,2.071-28.188s11.056-18.419,11.056-18.419s-5.305,9.035-4.645,13.929
	c0.659,4.895,5.875,8.367,5.089,16.607c0,0,3.081,0.942,4.232-7.222c0.945-6.709,9.638-9.532,9.487-9.582
	c0,0-4.986,9.51-2.998,13.763c2.56,5.474,5.35,3.756,16.064,8.398c10.714,4.643,6.429,16.785,8.571,20.714
	c3.879,5.983,7.039-7.605,4.761-15.2c6.075,0.608,14.321,10.051,13.097,13.415c0,0,10.356-3.929,18.929-9.286
	c8.571-5.357,11.428-18.929,7.856-29.643c-3.571-10.715-13.487-23.394-9.643-33.929c4.041-11.071,5.567-14.512,4.286-21.786
	c-1.282-7.273-11.429-18.928-11.429-18.928c14.186,7.812,22.95,24.43,16.097,40.339c-3.492,4.648,0.994,13.672,8.494,17.243
	s15.409-4.368,18.98-11.868s17.5-7.5,17.5-7.5s-10.357,6.429-10.715,19.286c-0.356,12.856,12.857,13.571,8.572,28.214
	c-2.37,8.096-7.359,12.043-12.555,15.222c-4.201,2.57-8.538,4.639-11.731,7.992c-7.143,7.5-1.786,17.144-1.786,17.144
	s3.215-1.429,7.5-8.571c4.286-7.144,14.644-2.5,14.644-2.5c-9.642,1.06-11.071,5.838-8.571,11.785
	c11.579-2.369,22.586-26.977,22.586-26.977s-6.034,23.702-3.301,32.657c4.536,14.189,20.113,16.022,42.8-2.049
	c10.725-8.061,8.628-73.988,8.628-73.988s11.158,8.928,17.857,9.285c8.809,0.47,20.119-2.07,24.643-9.643
	c6.816-11.41,12.595-41.062-4.809-39.582c-4.3,0.366-7.691,10.653-7.691,10.653c-1.286-12.36,6.511-22.608,15.357-21.786
	c17.509,1.628,7.452,37.594,21.926,47.98c4.055,1.753,10.217-18.694,10.217-18.694s0.357,11.429,3.215,20
	c5.284,15.243,14.855,34.706,36.027,34.766c9.395-1.424,17.429-8.352,20.758-16.552c2.845-7.005-2.856-22.5-2.856-22.5
	s5.227,2.832,13.441,16.403c8.214,13.571-3.911,29.712-3.911,29.712c-0.031,0,10.881-7.538,14.571-8.806
	c6.309-2.168,16.97,0.548,16.97,0.548c-2.162-1.966-16.638,48.375-5.266,58.285c8.838,7.701,18.923,5.652,30.686-2.193
	c38.314-25.557,44.757-73.209,41.365-88.234c-3.145-13.932-15.357-40-15.357-40s15.357,26.429,25,36.785
	c9.644,10.357,25,18.215,25,18.215s2.876-14.182,1.429-21.071c-3.011-14.331-12.143-27.857-20.356-38.929
	c-8.215-11.071-9.644-21.786-9.644-21.786s3.571,5,8.215,11.071c4.643,6.071,7.856,7.144,10.714,7.857s3.929-5.357,2.144-8.214
	c-1.786-2.857-11.786-7.144-11.786-7.144s10.715,1.071,25,9.644c7.707,4.759,14.148,20.187,20.715,38.214
	c0,0,0.801,1.768,2.229-9.304s11.342-12.482,11.342-12.482s-2.587,1.812-4.373,7.883c-4.68,19.951,20.638,23.236,19.146,44.899
	c0,0,8.441-0.639,14.513-8.139s8.376-10.276,9.644-21.071c1.252-10.671-4.644-20.357-8.572-31.071
	c-3.928-10.715-7.233-21.202-6.785-32.144c0.289-7.075,6.91-13.325,6.071-20.356c-0.529-4.435-6.742-11.577-6.742-11.577
	c7.695,0.396,9.048,2.764,12.666,6.804c4.989-8.386,1.32-13.971,0.671-22.658c0-9.644,20.566-22.161,20.566-22.161
	s-8.299,10.477-9.878,16.768c-1.427,5.687-1.429,3.286,0.715,17.572c1.64,13.068-11.721,23.906-12.284,42.753
	c0,6.785,2.857,23.571,14.644,31.428c11.785,7.857,21.785,2.857,35.356-11.785c13.572-14.643,6.786-22.143,11.072-32.857
	c4.285-10.714,0-14.285-0.357-21.429c-0.357-7.143,5.357-27.143,5.357-27.143s0.356-5.357-2.857-4.643
	c-3.215,0.714-3.75,12.679-3.75,12.679c-5.367-12.472-4.119-15.151,2.679-26.607c2.5-2.857,5.714-13.571-0.715-22.144
	c-6.429-8.57-13.75-5.535-13.75-5.535c-0.151-0.547,5.941-4.095,7.321-15c1.226-9.678-15.496-19.612-22.678-30.893
	c-4.514-7.089-13.714-26.022-5.536-43.928c7.84-17.166,27.5-22.143,27.5-22.143c-14.752,10.066-20.651,20.23-20.714,42.143
	c-0.029,9.943,9.643,22.857,15.714,25.356c6.071,2.5,13.929,3.215,13.929,3.215s-6.071,0.357-6.071,5s2.022,4.073,3.929,5
	c1.82,0.885,6.071,0,6.071,0c-2.006,2.263-3.168,5.51-7.857,4.643c0,0,1.507,2.64,2.66,3.576c1.872,1.519,6.566,3.029,6.566,3.029
	c6.565,3.031,6.565,8.082,6.565,8.082s1.879-5.5,3.929-7.393c3.535-3.264,13.093-5.777,13.244-5.74
	c-14.049,15.771-11.847,24.893-0.934,41.713c10.367,15.557,5.984,26.979,1.438,44.15c-3.921,15.594,7.203,25.458,21.214,41.922V600
	H-2.5V336.679L-2.54,336.376z"/>
<path id="path4144" sodipodi:nodetypes="cacaacscacacacszcacc" inkscape:connector-curvature="0" fill="#FFA500" d="
	M291.786,601.519c0,0,8.923-7.86,5.602-29.574s-18.904-22.479-15.838-44.96c19.67,6.131,21.5-10.13,21.714-19.925
	c0.335-15.348-7.888-33.692-8.263-35.702c-0.792-4.245-6.429-11.25-6.429-11.25s11.944-0.014,17.143,2.5
	c5.156,2.493,9.132,7.154,12.5,11.786c1.472,2.024,3.215,6.786,3.215,6.786s-3.571-8.929,0.357-15.357
	c3.928-6.429,10.714-11.429,10.714-11.429s-1.21,6.895,0,10c2.172,5.574,12.143,13.214,12.143,13.214s-1.624-13.665,1.071-19.643
	c4.604-10.206,15.548-16.531,23.929-23.571c8.382-7.04,17.27-11.021,23.75-18.75c2.909-3.469,6.429-11.964,6.429-11.964
	c-0.793,0.792-1.55,30.928,5,43.035c7.549,13.953,21.844,17.311,30.715,16.965c8.87-0.347,15.178-10,15.178-10
	s0.122,14.519-1.785,21.428c-11.297,44.214-2.611,37.316,1.787,39.104c1.988,22.991-21.327,40.009-22.28,55.944
	c-1.093,18.28,11.922,31.362,11.922,31.362H291.786z"/>
<path id="path4144_1_" sodipodi:nodetypes="cacaacscacacacszcacc" inkscape:connector-curvature="0" fill="#FFA500" d="
	M504.21,601.519c0,0,8.923-7.86,5.602-29.574s-18.904-22.479-15.838-44.96c19.67,6.131,21.5-10.13,21.714-19.925
	c0.335-15.348-7.888-33.692-8.263-35.702c-0.792-4.245-6.429-11.25-6.429-11.25s11.944-0.014,17.143,2.5
	c5.156,2.493,9.132,7.154,12.5,11.786c1.472,2.024,3.215,6.786,3.215,6.786s-9.949-24.584-6.02-31.013
	c3.928-6.429-0.333-33.334-0.333-33.334s13.717,20.526,14.927,23.632c2.172,5.574,11.073-23.965,11.073-23.965
	s-6,62.333,23.667,61.333c11.271,6.338,15.202,17.463,16.694,27.109c-0.138-0.846,4.991-34.924,16.582-46.272
	c7.549,13.953,21.057,20.58,30.057,14.33c9.525-4.925,9-17.893,9-17.893s13.761,13.091,11.854,20
	C650.057,519.321,686,488,692.25,481c23,29.75-18.75,43.533-9.75,103.167c2.733,18.107-29.718,17.352-29.718,17.352H504.21z"/>
<path id="path4144_2_" sodipodi:nodetypes="cacaacscacacacszcacc" inkscape:connector-curvature="0" fill="#FFA500" d="
	M1298.418,601.519c0,0,8.923-7.86,5.603-29.574c-3.321-21.714-18.904-22.479-15.839-44.96c19.67,6.131,21.5-10.13,21.714-19.925
	c0.335-15.348-7.889-33.692-8.264-35.702c-0.792-4.245-6.428-11.25-6.428-11.25s11.943-0.014,17.143,2.5
	c5.156,2.493,9.133,7.154,12.5,11.786c1.471,2.024,3.215,6.786,3.215,6.786s-9.949-24.584-6.021-31.013
	c3.928-6.429-0.333-33.334-0.333-33.334s13.717,20.526,14.926,23.632c2.172,5.574,11.074-23.965,11.074-23.965
	s-6,62.333,23.666,61.333c11.271,6.338,15.203,17.463,16.695,27.109c-0.139-0.846,4.99-34.924,16.581-46.272
	c7.549,13.953,21.058,20.58,30.058,14.33c9.524-4.925,9-17.893,9-17.893s13.76,13.091,11.854,20
	c-11.297,44.214,24.646,12.893,30.896,5.893c23,29.75-18.75,43.533-9.75,103.167c4.906,33.36-29.719,17.352-29.719,17.352H1298.418z
	"/>
<path id="path4146" sodipodi:nodetypes="csccscsacascsscscc" inkscape:connector-curvature="0" fill="#FFA500" d="M756.87,601.875
	c0,0-8.297-2.575-5.614-15.417c7.39-12.79-17.054-9.664-2.558-32.687c8.527-10.801-19.043-21.602-11.653-38.673
	c20.464,15.65,35.661,7.593,36.624,1.841c5.442-8.076-13.886-11.486-10.475-21.719c15.349,2.558,14.927-13.049,13.843-15.113
	l-7.5-14.285c18.436-4.469,15.888,12.324,26.606,16.429c0,0-3.393-3.571,0.536-12.5s8.75-10.357,8.75-10.357
	s-2.857,8.929-1.071,12.5c1.785,3.571,3.729,4.641,6.071,6.429c1.608,1.228,5.357,2.857,5.357,2.857s-1.95-17.905,2.5-25
	c6.047-9.644,25.178-8.215,29.106-17.857s9.821-10,9.821-10s-6.071,14.286,0,25s13.929,15.179,22.5,15.179
	s16.071-8.036,16.071-8.036s4.286,15.357,0.357,23.571c-5.89,18.021-26.071,40.232,8.632,21.966
	c-2.136,27.236-27.764,21.73-34.704,38.77c-2.666,6.546,23.598,9.396,8.221,31.18c-4.694,6.65,2.99,15.805,23.493,9.397
	c-2.233,13.558-27.058,16.348-27.058,16.348L756.87,601.875z"/>
<path id="path4150" sodipodi:nodetypes="cacaacscacacacszcacc" inkscape:connector-curvature="0" fill="#FFA500" d="
	M1696.943,600.056c0,0-7.692-19.207-8.175-30.506c-0.356-8.343,10.904-22,10.461-33.12c-16.812,12.25-19.799-19.023-18.174-34.562
	c2.269-21.696,18.174-41.76,18.174-41.76s-11.944-0.014-17.143,2.5c-5.156,2.493-9.133,7.154-12.5,11.786
	c-1.472,2.024-3.215,6.786-3.215,6.786s3.571-8.929-0.356-15.357c-3.929-6.429-10.715-11.429-10.715-11.429s1.211,6.895,0,10
	c-2.172,5.574-12.143,13.214-12.143,13.214s1.624-13.665-1.071-19.643c-4.604-10.206-15.548-16.531-23.929-23.571
	c-8.382-7.04-17.27-11.021-23.75-18.75c-2.909-3.469-6.429-11.964-6.429-11.964c0.793,0.792,1.55,30.928-5,43.035
	c-7.549,13.953-21.844,17.311-30.714,16.965c-8.871-0.347-15.179-10-15.179-10s-5.72,22.632,6.315,34.124
	c5.735,6.067,15.613,14.458,17.553,24.887c0.641,7.603-0.484,24.979-16.491,23.282c18.432,25.465,4.607,27.89-14.552,21.827
	c1.017,14.335,23.271,7.72,24.01,18.674c0.828,12.278-23.039,23.955-23.039,23.955L1696.943,600.056z"/>
<path id="path4152" sodipodi:nodetypes="csccscsacascsscscc" inkscape:connector-curvature="0" fill="#FFA500" d="M1211.857,602.41
	c0,0-7.282-5.578-7.356-12.767c-0.059-5.564,13.749-14.494,13.714-22.571c-20,16.857-19.429,10-6.639-25.646
	c8.639,0,10.577-13.567,10.689-19.783c-18.907,11.715-16.308-9.599-16.051-15.587c0.492-11.494,7.407-23.771,8.551-25.949
	l7.5-14.285c-18.436-4.469-15.889,12.324-26.607,16.429c0,0,3.393-3.571-0.536-12.5s-8.75-10.357-8.75-10.357
	s2.857,8.929,1.071,12.5c-1.785,3.571-3.729,4.641-6.071,6.429c-1.608,1.228-5.356,2.857-5.356,2.857s1.949-17.905-2.5-25
	c-6.048-9.644-25.179-8.215-29.107-17.857s-9.821-10-9.821-10s6.071,14.286,0,25s-13.929,15.179-22.5,15.179
	s-16.071-8.036-16.071-8.036s-4.286,15.357-0.357,23.571c0.216,0.452-19.998,5.199,0.137,17.832s12.706,26.347-8.937,19.204
	c-5.396,25.928,44.499,14.857,19.928,33.143c-30.856,19.715,2.571,32-14.532,42.442c-6.632,22.006,1.746,5.574,1.746,5.574
	L1211.857,602.41z"/>
<path id="path4156" sodipodi:nodetypes="cacsccccascssccsccc" inkscape:connector-curvature="0" fill="#FFA500" d="M915.823,600
	c0,0,12.089-12.879,12.566-22.452c0.386-7.74-22.66-13.596-18.334-45.934c9.478,13.18,12.995,10.518,11.949-10.304
	c21.012-10.712,21.507,14.41,21.834,8.45c0.371-6.768-7.826-38.938-24.513-38.727c0.487-8.152,6.799-15.455,12.793-13.515
	c2.04,18.659,14.833-13.999,10.102-35.86c0,0,7.323-1.011,9.597,7.828c2.272,8.839,5.303,14.647,5.303,14.647
	s6.062-1.263,8.587-7.576c12.053-21.288,21.566-8.455,29.294-22.476c8.631-16.214,4.293-21.971,4.293-21.971
	c14.328,27.204,20.494,14.38,26.265,25.001c5.233,9.633,1.288,22.933,6.061,32.325c5.333,10.494,5.304,7.323,5.304,7.323
	s-3.283-2.525,1.01-7.829c4.293-5.303,8.586-7.07,8.334-12.121c-0.253-5.051-0.758-6.819-0.758-6.819s4.041,3.031,5.051,9.345
	s1.516,10.354,3.535,13.384c2.021,3.03,8.082,5.304,8.334,11.617c1.172,9.223-20.779,24.196,13.091,22.307
	c-0.233,5.479-14.34,11.025-14.637,17.548c-0.234,5.146-2.953,33.476,19.726,15.158c7.123,18.463-30.588,26.447-28.331,37.214
	c1.148,4.589,8.27,12.356,20.48,5.381c-0.393,8.011-15.495,17.947-15.495,17.947L915.823,600z"/>
<path id="path4160" sodipodi:nodetypes="caccacsscscscssscassacascscccssc" inkscape:connector-curvature="0" fill="#FFA500" d="
	M11.786,600.09c0,0-10.607-118.462-11.786-125.196c-2.893-16.527,10-21.071,13.214-48.571c0.855-17.883,5.261-32.162-9.286-40
	c0,0,9.336-1.591,13.571,0c3.554,1.335,8.571,7.5,8.571,7.5S12.5,378.465,11.786,359.536s-1.071-23.929,3.929-42.5
	s7.143-32.143,7.143-32.143s-2.5,37.5-0.714,47.5l1.786,10c0,0,5.357-10,5-15.714l-0.357-5.715c0,0,6.072,20,5,26.071
	c-1.071,6.071-3.928,10.357,2.5,22.5c6.429,12.143,16.072,10.715,16.072,5.715v-5c0,0,4.692,7.033,5,11.071
	c0.403,5.299-6.429,8.571-4.286,15.357C55,403.465,70,410.786,73.214,408.644s3.949-7.538,2.857-11.25
	c-2.02-6.869-15.714-14.643-15.714-14.643S77.795,388.42,85,393.822c9.391,7.04,17.143,9.285,22.857,26.785
	c5.714,17.5,4.643,25.357,4.643,25.357s17.143-22.857,34.286-24.643c17.143-1.786,32.857,5.714,32.857,5.714
	c-32.839-4.592-29.137,38.486-9.286,33.215c12.143-3.571,20.357-30.357,20.357-30.357s16.071,17.143,14.286,30.714
	c0.854,11.711,6.411,29.699,0.29,46.65c-15.947,44.163,27.865,41.337,27.865,41.337s1.792,22.612-23.319,35.686
	c-8.053,4.192-13.17,12.881-14.657,14.202C188.75,604.196,11.786,600.09,11.786,600.09z"/>
<path id="path4163" sodipodi:nodetypes="caccacsscscscssscassacascscccssc" inkscape:connector-curvature="0" fill="#FFA500" d="
	M1972.726,601.679c0,0-16.15-7.542-14.844-16.244c0.946-6.298,19.121-12.247,20.433-20.968
	c-14.086,0.953-18.636-19.634-17.508-27.119c22.212,7.078,31.14-16.784,32.219-23.92c-29.533,12.448-24.435-20.512-23.432-27.093
	c19.038-16.842,21.167-4.054,21.41-5.441c2.893-16.527-10-21.071-13.214-48.571c-0.855-17.883-5.261-32.162,9.286-40
	c0,0-9.337-1.591-13.572,0c-3.554,1.335-8.571,7.5-8.571,7.5s13.571-15.357,14.286-34.286c0.714-18.929,1.071-23.929-3.929-42.5
	s-7.143-32.143-7.143-32.143s2.5,37.5,0.714,47.5l-1.785,10c0,0-5.357-10-5-15.714l0.356-5.715c0,0-6.071,20-5,26.071
	s3.929,10.357-2.5,22.5c-6.429,12.144-16.071,10.715-16.071,5.715v-5c0,0-4.692,7.033-5,11.071
	c-0.403,5.299,6.429,8.571,4.286,15.357c-2.144,6.785-17.144,14.106-20.357,11.964c-3.215-2.143-3.948-7.538-2.857-11.25
	c2.021-6.869,15.715-14.643,15.715-14.643s-17.438,5.669-24.644,11.071c-9.391,7.041-17.143,9.285-22.856,26.785
	c-5.715,17.5-4.644,25.357-4.644,25.357s-17.143-22.857-34.285-24.643c-17.143-1.786-32.857,5.714-32.857,5.714
	c32.839-4.592,29.137,38.486,9.286,33.215c-12.144-3.571-20.357-30.357-20.357-30.357s-16.071,17.143-14.286,30.714
	c0.344,2.616,18.442,41.352-16.423,31.893c3.514,18.648,38.378,10.54,40.271,30c-0.147,12.646-23.984,9.631-23.964,22.434
	c0.016,9.66,12.342,22.972-13.604,24.593c17.332,3.771,15.384,23.065,17.049,24.545c6.428,5.714,161.564,1.607,161.564,1.607
	H1972.726z"/>
<path id="path4526" sodipodi:nodetypes="cscacasacccccccscccaccccssc" inkscape:connector-curvature="0" fill="#FFDE00" d="
	M173.628,609.302l-130.696,1.3c-1.123,0.011-27.305-40.39-29.177-87.923c21.334,37.428,24.791,11.979,22.763-2.714
	c-2.818-20.418-7.344-36.521-14.886-37.735c0,0,8.63-5.234,13.479-5.857c4.645-0.597,13.882,2.17,13.882,2.17
	c1.04-4.486-21.303-7.854-27.177-16.824c-5.106-7.799-7.673-18.036-4.138-27.776s5.098-16.812,3.536-25.12
	c-1.273-6.767-10.102-17.943-10.102-17.943c0.611,0.828,27.702,14.74,23.105,30.393c-0.349,16.583,3.792,20.781,14.27,29.075
	c0,0-7.565-11.708,5.566-22.986c17.651-9.514,26.777,6.554,38.641-22.955c0,0,5.051,13.111,0,22.339
	c-0.957,25.086,19.171,31.562,34.806,24.035c0,0,5.714,5.801,3.571,14.138c-2.143,8.338-8.214,9.788-8.214,9.788
	s4.853,2.39,8.572,0.725c7.212-4.397,8.552-9.207,5.536-17.219c0,0,5.491,4.585,6.786,7.794c1.265,3.136,0.536,10.149,0.536,10.149
	s3.929-11.962,14.643-10.875c7.486,1.024,25.486,1.511,28.571-5.8c1.071-2.899,1.071-1.45,1.071-1.45s5.714,10.875-2.143,16.676
	c-7.857,5.8-13.572,4.35-13.929,10.149s-0.116,16.043,2.004,19.93s15.192,2.473,21.906-8.127
	c5.3,21.199-17.651,42.753-22.782,62.892s18.895,20.492,18.895,20.492L173.628,609.302z"/>
<path id="path4526_1_" sodipodi:nodetypes="cscacasacccccccscccaccccssc" inkscape:connector-curvature="0" fill="#FFDE00" d="
	M670.02,609.302l-141.52,1.3c-1.123,0.011-19.125-40.057-20.996-87.59c21.334,37.428,33.274,16.214,31.246,1.521
	c-2.818-20.418-13.185-41.09-20.726-42.304c0,0,8.63-5.234,13.479-5.857c4.645-0.597,13.882,2.17,13.882,2.17
	c1.04-4.486-9.418-6.33-12.057-21.287c-0.44-9.975-10.032-6.729-13.344-5.132c-6.708-17.833,21.221-23.061,16.624-7.408
	c-0.349,16.583,4.85,25.285,17.981,14.007c24.398,22.09,6.297,68.287,18.161,38.778c0,0,28.718,41.022,23.667,50.25
	c-0.957,25.086-1.089-74.357,14.545-81.884c0,0,20.37-6.312,18.227,2.024c-2.143,8.338,0.528,20.486,1.823,23.695
	c1.265,3.136,18.024-15.999,18.024-15.999s18.834,13.771,3.645,25.72c10.329,5.063,15.285,2.026,27.34-3.24
	c-4.456,10.126,1.015,11.033,7.728,0.434c5.3,21.199-12.6,40.909-17.73,61.048s21.23-9.298,21.23-9.298L670.02,609.302z"/>
<path id="path4526_2_" sodipodi:nodetypes="cscacasacccccccscccaccccssc" inkscape:connector-curvature="0" fill="#FFDE00" d="
	M1473.328,609.302l-141.52,1.3c-1.123,0.011-19.125-40.057-20.996-87.59c21.334,37.428,33.273,16.214,31.246,1.521
	c-2.818-20.418-13.185-41.09-20.727-42.304c0,0,8.631-5.234,13.479-5.857c4.645-0.597,13.883,2.17,13.883,2.17
	c1.039-4.486-9.418-6.33-12.058-21.287c-0.44-9.975-10.032-6.729-13.344-5.132c-6.708-17.833,21.221-23.061,16.624-7.408
	c-0.35,16.583,4.85,25.285,17.981,14.007c24.398,22.09,6.298,68.287,18.161,38.778c0,0,28.719,41.022,23.668,50.25
	c-0.957,25.086-10.024-72.291,5.61-79.817c0,0-0.218,19.801,29.289,6.544c19.957,13.802,11.208,1.523,11.208,1.523
	s25.346,13.358,10.156,25.307c10.328,5.063,15.285,2.026,27.34-3.24c-4.455,10.126-2.836,16.068,3.877,5.469
	c5.3,21.199-22.705,37.115-27.836,57.254c-5.13,20.139,8.059,10.639,8.059,10.639L1473.328,609.302z"/>
<path id="path4165" sodipodi:nodetypes="cssscsacsscssaccccacscssacc" inkscape:connector-curvature="0" fill="#FFDE00" d="
	M314.107,606.118c0,0-14.038-38.275-14.421-56.653c6.387,6.386,13.388,6.516,13.183-2.81c-0.124-5.604-7.183-13.508-7.307-18.904
	c-0.199-8.633,13.974-15.461,13.794-22.225c-0.287-10.81-10.218-8.43-10.984-13.795c4.087-6.896,4.307-11.088,2.878-13.409
	s-7.143-8.394-12.679-10.894s-5.357-2.143-5.357-2.143s9.286-0.893,18.214,6.25c8.929,7.144,6.464,8.015,10.893,10.357
	c1.992,1.054,6.607,1.429,6.607,1.429s-6.071-3.571-6.25-7.5s3.929-5.179,3.214-8.571c-0.714-3.394,3.571,2.143,2.5,5.714
	c-0.73,3.927,3.121,5.325,6.071,6.965c2.692,1.495,2.857-2.322,3.394-4.107c0.535-1.786,1.013,3.995,2.679,4.643
	c3.315,1.29,7.854-0.521,10.178-3.214c-4.052-36.431,19.484-33.913,41.25-56.965c3.215-4.643,3.572-6.071,3.572-6.071
	s-0.894,8.75-6.786,14.465c-12.206,13.367,4.456,20.561,6.429,30.893c0.782,4.095,2.143,12.321,2.143,12.321
	s-0.714-7.143,7.143-9.464c7.857-2.321,7.322-1.071,7.322-1.071s-5.626,0.95-5.536,8.75c0.089,7.778,0.837,7.515,3.036,10.356
	c2.952,3.816,2.46,11.405,3.346,14.484c0.2,0.693-14.237,19.713,12.412,4.745c-2.575,5.714,15.184,9.497,14.967,17.158
	c-0.228,8.033-48.064,13.321-31.552,40.35c6.083,8.719,28.386-8.312,6.186,27.568c-9.228,11.361-0.716,21.705-0.716,21.705
	L314.107,606.118z"/>
<path id="path4167" sodipodi:nodetypes="csscsacascssscssscsssscscccc" inkscape:connector-curvature="0" fill="#FFDE00" d="
	M783.554,601.429c0,0-29.352-27.053-29.067-40.43c42.475,30.44,23.007,4.247,18.052-3.894c10.619-17.698,23.579-8.56,23.715-13.805
	c0.163-6.282-19.646-17.268-19.467-23.16c18.406,3.692,19.275-6.121,19.467-11.129c0.418-10.896-18.1-16.186-17.698-17.034
	c7.079-3.186,11.695-12.405,6.159-15.62c-5.535-3.214-7.143-5.178-7.143-5.178s10.042,2.854,13.215,6.071
	c5.143,5.214,3.591,5.723,6.25,7.679c1.291,0.949,4.464,1.785,4.464,1.785s-3.328-2.706-3.929-4.643
	c-1.045-3.372,0-8.571,1.071-10.536l1.071-1.964c0,0-0.179,4.106,1.25,7.5c1.429,3.393,2.857,6.429,4.644,6.429
	c1.785,0,2.604-0.547,3.035-1.607c0.59-1.447-1.429-4.464-1.429-4.464s3.394,2.143,4.286,3.75c0.893,1.606,2.857,4.464,5,2.143
	s4.456-4.624,4.107-8.75c-1.254-14.806,2.903-21.722,17.143-28.036c6.964-3.035,15.893-12.679,16.071-13.929
	s1.786,6.25-2.679,11.786c-4.464,5.536-7.143,9.107-3.393,13.571c3.75,4.465,9.821,8.929,9.107,13.036
	c-0.715,4.106-0.536,4.821-0.536,4.821s0.357-5.894,5-6.786s8.75-1.785,8.75-1.785s-7.04,3.572-8.214,6.964
	c-0.348,1.966-2.508,18.733,23.575,15.164c0.044,8.588-28.832,11.474-28.568,23.027c2.759,32.984,20.057,20.079,28.568,22.825
	c-7.974,7.967-28.006,40.911-14.371,41.869c0.565,14.635-6.395,24.523-6.081,25.221L783.554,601.429z"/>
<path id="path4169" sodipodi:nodetypes="cscacasacccccccscccaccccssc" inkscape:connector-curvature="0" fill="#FFDE00" d="
	M1814.614,599.432l130.697,1.28c0.409,0.005,0.752-2.401,1.104-6.529c-5.666-2.308-9.937-5.773-8.041-11.308
	c7.375-17.375,22.919-2.151,31.125-17.125c-16.5-7.5-28.466-27.663-26.964-37.514c2.434-15.373,14.684-9.193,18.713-17.953
	c-10.283-22.436,4.045-26.764,8.084-27.404c0,0-8.63-5.156-13.479-5.771c-4.646-0.588-13.883,2.138-13.883,2.138
	c-1.04-4.42,21.304-7.738,27.177-16.575c5.107-7.684,7.674-17.77,4.139-27.366c-3.536-9.597-5.099-16.563-3.536-24.749
	c1.272-6.666,10.102-17.678,10.102-17.678c-0.611,0.815-27.702,14.522-23.105,29.943c0.35,16.338-3.793,20.475-14.271,28.646
	c0,0,7.566-11.535-5.566-22.646c-17.651-9.373-26.776,6.457-38.641-22.616c0,0-5.051,12.918,0,22.01
	c0.958,24.715-19.171,31.094-34.806,23.68c0,0-5.714,5.714-3.571,13.929c2.143,8.214,8.215,9.643,8.215,9.643
	s-4.853,2.354-8.572,0.715c-7.211-4.333-8.552-9.072-5.535-16.965c0,0-5.491,4.518-6.785,7.679c-1.266,3.089-0.536,10-0.536,10
	s-3.929-11.786-14.643-10.714c-7.486,1.009-25.486,1.487-28.571-5.715c-1.072-2.857-1.072-1.429-1.072-1.429
	s-5.714,10.715,2.144,16.429c5.202,3.784,10.099,3.778,11.855,6.104c4.858,6.432,9.703,35.663-17.142,21.932
	c-0.67,4.687,4.5,32.5,17,29.775c4.234,19.984-4.53,36.199-19,23.725c-0.258,6.991,3.75,17.25,18.212,20.248
	C1814.968,590.322,1814.614,599.432,1814.614,599.432z"/>
<path id="path4171" sodipodi:nodetypes="cssscsacsscssaccccacscssacc" inkscape:connector-curvature="0" fill="#FFDE00" d="
	M1671.5,599.714c0,0,5.876-7.47,0.473-14.313c-9.288-11.764,4.951-9.695,9.34-28.712c-11.836-5.059-24.008-13.174-23.573-24.942
	c3.886,1.129,27.484,4.433,17.174-29.691c-2.723-9.012-0.129-12.525,3.569-14.567c0.575-2.371-4.197-8.844-2.769-11.165
	s7.144-8.394,12.679-10.894c5.536-2.5,5.357-2.143,5.357-2.143s-9.286-0.893-18.215,6.25c-8.928,7.144-6.464,8.015-10.893,10.357
	c-1.992,1.054-6.607,1.429-6.607,1.429s6.072-3.571,6.25-7.5c0.179-3.929-3.928-5.179-3.214-8.571
	c0.714-3.394-3.571,2.143-2.5,5.714c0.731,3.927-3.121,5.325-6.071,6.965c-2.692,1.495-2.857-2.322-3.393-4.107
	c-0.536-1.786-1.014,3.995-2.679,4.643c-3.316,1.29-7.854-0.521-10.179-3.214c4.052-36.431-19.484-33.913-41.25-56.965
	c-3.215-4.643-3.571-6.071-3.571-6.071s0.893,8.75,6.785,14.465c12.206,13.367-4.456,20.561-6.429,30.893
	c-0.781,4.095-2.143,12.321-2.143,12.321s0.715-7.143-7.143-9.464s-7.322-1.071-7.322-1.071s5.626,0.95,5.536,8.75
	c-0.089,7.778-0.837,7.515-3.036,10.356c-2.952,3.816,9.713,17.491-1.656,23.59c-2.831,1.824-7.966,2.246-15.551-7.312
	c0.105,8.104,15.574,26.892,15.764,37.106c0.149,8.049-5.658,17.077-5.496,24.982c0.121,5.883,7.193,10.911,8.892,22.795
	c0.33,15.373-19.159,20.802-19.159,20.802L1671.5,599.714z"/>
<path id="path4173" sodipodi:nodetypes="csscsacascssscssscsssscscccc" inkscape:connector-curvature="0" fill="#FFDE00" d="
	M1189.748,600.358c0,0,7.896-7.571,4.467-22.144c-4.856-10.571-19.068-7.636-18-15.428c1.324-9.655,25.994-6.791,27.429-17.715
	c0.797-6.065-2.142-27.181-1.429-32.857c-19.714,20.286-28.896,13.415-28.285,7.926c1.024-9.221,30.186-32.478,29.82-33.247
	c-1.607-3.393-3.035-7.321,2.5-10.536c5.535-3.214,7.143-5.178,7.143-5.178s-10.042,2.854-13.214,6.071
	c-5.143,5.214-3.592,5.723-6.25,7.679c-1.291,0.949-4.465,1.785-4.465,1.785s3.329-2.706,3.929-4.643
	c1.045-3.372,0-8.571-1.071-10.536l-1.071-1.964c0,0,0.179,4.106-1.25,7.5c-1.429,3.393-2.857,6.429-4.643,6.429
	c-1.786,0-2.604-0.547-3.036-1.607c-0.59-1.447,1.429-4.464,1.429-4.464s-3.393,2.143-4.286,3.75c-0.893,1.606-2.856,4.464-5,2.143
	c-2.143-2.321-4.456-4.624-4.106-8.75c1.253-14.806-5.167-20.757-19.406-27.071c-6.964-3.035-10.992-12.354-11.171-13.604
	s-3.197,6.497,1.267,12.033s5.917,7.57,2.167,12.034c-3.75,4.465-9.821,8.929-9.106,13.036c0.714,4.106,0.535,4.821,0.535,4.821
	s-0.357-5.894-5-6.786s-8.75-1.785-8.75-1.785s7.04,3.572,8.215,6.964c0.321,1.82-16.098,12.462-17.178,20.572
	c20-8.572,30.073,14.594,29.143,20.571c-1.106,7.106-0.571,24-28.571,1.502c-1.162,6.854,16.775,31.414,15.57,38.212
	c-2.091,11.795-7.285,23.429-19.752,23.715c-2.147,11.378,0.27,21.864,0,22.464L1189.748,600.358z"/>
<path id="path4202" sodipodi:nodetypes="cacscccscssccsccc" inkscape:connector-curvature="0" fill="#FFDE00" d="M931.195,599.804
	c0,0,10.927-8.34,8.638-19.618c-2.778-10.3-13.251-17.14-12.914-23.705c7.684,5.231,17.411,2.265,17.655-2.452
	c0.337-6.506-9.91-21.938-9.574-28.283c0.309-5.84,9.783-7.883,10.064-13.075c0.295-5.432-13.318-16.423-13.078-20.598
	c7.683,3.597,3.472-13.667,3.596-14.386c1.886-10.954,13.443-13.041,9.455-29.154c0,0,4.745,6.755,6.661,13.27
	s6.971,16.69,6.971,16.69c3.955-21.74,30.316-26.862,31.934-29.473c7.275-11.95,28.262-15.122,28.262-15.122
	c-9.89,22.344,2.332,18.27,6.535,29.395c3.163,8.369,0.899,16.291,0.899,16.291s7.411,1.174,11.03-2.734
	c3.619-3.909,5.81-6.462,5.597-10.185s7.04-7.883,7.04-7.883s-3.736,4.198-2.885,8.852s-1.58,7.631,0.123,9.864
	s4.849,2.48,5.062,7.134c-5.918,0.645-7.54,6.425-7.868,17.224c-0.146,4.787,5.852,10.107,11.349,13.512
	c-0.184,5.681-6.002,16.543-5.043,22.552c1.674,10.483-3.113,15.005-9.054,17.576c-0.277,8.144,3.458,24.558,11.525,14.362
	c-0.213,6.152-8.196,20.306-8.333,24.203c-0.156,4.491,3.729,5.923,3.729,5.923L931.195,599.804z"/>
<path id="path4194" sodipodi:nodetypes="cscacsacsccccsscscsscc" inkscape:connector-curvature="0" fill="#FFFF99" d="
	M1162.536,602.053c0,0,13.394-8.409,6.287-24.72c-3.023-6.939,11.108-8.726,11.988-19.826c-18.311-4.148-19.189-9.874-18.311-19.59
	c0.815-9.02,14-17.776,15.642-31.86c1.248-10.711-5.178-17.734-4.285-17.913c3.571-0.714,4.285-0.893,4.285-0.893
	s-5.407-3.469-8.393-3.215c-2.207,0.188-5.715,3.393-5.715,3.393s4.465-5,3.215-8.214s-1.717-3.227-1.965-5
	c-0.256-1.836,0.536-5.536,0.536-5.536s-3.929,2.5-3.393,7.144c0.535,4.643,0.356,5.357-1.25,6.25
	c-3.742,2.344-4.737-0.939-5.357-2.321c-2.321-5.179,0.714-9.107-0.536-13.571c-4.394-7.029-2.514-3.957-0.535-11.072
	c0,0-7.321,4.465-6.429,8.036c0.894,3.571-3.035,4.286-4.106,8.393c-1.072,4.107-0.357,11.25-0.357,11.25s-1.429,0-3.571-3.75
	c-2.144-3.75-2.144-4.285-2.144-4.285c0.011,0.05-2.038,5.852-0.893,8.929c1.754,4.71,1.312,5.338,0.179,7.321
	c0,0-6.938,11.028-15.224,16.743c0,13.143,9.762,13.172,12.783,12.396c6.37,28.074-8.773,16.074-8.773,16.074
	s31.451,29.268,12.286,34.857c-13.715,4-10.43,31.695-10.43,31.695L1162.536,602.053z"/>
<path id="path4176" sodipodi:nodetypes="cssssccsaacscc" inkscape:connector-curvature="0" fill="#FFFF99" d="M538.916,418.173
	c0,0,11.617,8.954,11.617,18.045c0,9.092-3.443,10.984-2.434,21.591s14.438,15.923,19.994,19.458s11.209,4.146,12.678,10.219
	c0,0-11.233,29.051,10.528,10.637c0.837,34.735-10.713,38.922-10.713,38.922s-22.348,11.298,10.756,22.179
	c-27.664,21.343,3.958,32.895-11.016,47.416l-39.569-0.326c0,0-35.335-50.342-33.157-74.711
	c28.876,51.894,41.885,4.681,42.606-3.869c1.02-12.092-13.982-12.761-13.312-22.496c0.843-12.229,14.101-23.85,13.725-26.107
	c-1.516-9.092-10.604-11.806-14.734-18.529c-2.326-3.788-1.738-9.846-5.556-12.122c-3.066-1.829-5.768-2.698-10.688,0.702
	c2.536-10.394,13.041-9.098,16.965-4.465c1.876,2.215,2.321,8.394,2.321,8.394C544.499,438.604,543.355,432.389,538.916,418.173
	L538.916,418.173z"/>
<path id="path4178" sodipodi:nodetypes="cscacsssscsssssscsscaccc" inkscape:connector-curvature="0" fill="#FFFF99" d="
	M398.393,599.644c0,0,9.542-12.843,8.944-30.494c-0.419-12.366-28.404-12.7-19.167-33.021c5.792-6.042,21.938-2.771,24.94-18.705
	c-19.167,5.311-23.882-15.135-24.016-19.167c-0.249-7.473,12.037-5.395,12.008-6.466c-16.165-9.237-0.288-19.744-0.208-19.718
	c0,0-3.8-0.807-5.535-0.179c-2.696,0.976-6.429,5.714-6.429,5.714s2.5-3.75,1.785-6.606c-0.714-2.857-3.214-7.144-6.964-9.821
	c-3.75-2.679-6.25-5-5.536-8.572c0.715-3.571,2.322-7.321,1.25-9.106c-1.071-1.786-2.5-3.036-2.5-3.036s2.679,2.143,0.536,5.893
	s-5.714,9.107-4.107,13.572c1.607,4.464,2.679,6.964,1.786,10.714s-4.42,10.681-9.107,10.714c-1.266,0.01-1.785,0.536-2.5-2.856
	c-0.714-3.394,1.429-8.571-0.714-10.536c-2.144-1.964-4.644-2.5-4.644-2.5s3.572,4.107,2.5,6.429
	c-1.071,2.321-3.035,7.143-1.606,10.357l1.429,3.214c0,0-5.356-2.375-8.036-1.785c-2.779,0.611-6.786,5.178-6.786,5.178
	c1.893-0.02,20.899,31.554-5.065,20.3c-3.2,70.252-14.242-3.61-13.815,3.249c0.404,6.506-8.667,33.427,14,44.427
	c9.833,4.772,20.333,41.667-18.667,15c0.597,11.252,8.014,27.278,8.667,28.524L398.393,599.644z"/>
<path id="path4180" sodipodi:nodetypes="casccscsccccc" inkscape:connector-curvature="0" fill="#FFFF99" d="M597.021,601.25
	c0,0-6.991-3,1.939-13.226s-3.874-16.907-0.595-22.245c8.272-13.468-10.752-14.304-7.021-25.985
	c10.121,1.335,10.123-11.178,8.807-17.997c-7.03-36.407,7.886-53.511,12.886-53.332s10.893,2.5,12.678-0.356
	c1.97-6.625-2.31-9.714-8.571-12.144c0.017,0.113,7.21-2.375,10.357,0.536c3.531,3.266,5.356,3.929,5.357,3.929
	c0,0-2.857-5.179,2.143-9.644c5-4.464,6.429-3.393,6.429-3.393s-3.083,7.021-2.321,10.536c0.118,3.243,4.853,40.595,16.263,30.849
	c1.033,7.758-11.815,5.028-10.437,15.177c1.259,9.27,22.322,11.686,48.945-13.512c1.491,12.295-42.074,41.36-16.877,81.771
	c-5.467,24.483-23.538,24.394-25.695,29.572l-42.74-1.429L597.021,601.25z"/>
<path id="path4182" sodipodi:nodetypes="cscacsacsccccsscscsscc" inkscape:connector-curvature="0" fill="#FFFF99" d="
	M802.764,599.643c0,0,5.867-7.961,6.696-13.992c6.717-16.553-17.752-11.755-13.194-35.024c5.277,10.795,31.906,6.237,13.924-6.926
	c2.664-13.854,14.044-12.548,14.863-19.942c0.804-7.265-20.81-12.46-20.391-17.756c10.33,8.134,10.906-17.709,10.16-17.858
	c-3.571-0.714-4.285-0.893-4.285-0.893s5.407-3.469,8.393-3.215c2.207,0.188,5.714,3.393,5.714,3.393s-4.464-5-3.214-8.214
	s1.716-3.227,1.964-5c0.257-1.836-0.535-5.536-0.535-5.536s3.929,2.5,3.393,7.144c-0.536,4.643-0.357,5.357,1.25,6.25
	c3.742,2.344,4.737-0.939,5.357-2.321c2.321-5.179-0.715-9.107,0.535-13.571c4.395-7.029,2.515-3.957,0.536-11.072
	c0,0,7.321,4.465,6.429,8.036c-0.894,3.571,3.035,4.286,4.106,8.393c1.072,4.107,0.357,11.25,0.357,11.25s1.429,0,3.571-3.75
	c2.144-3.75,2.144-4.285,2.144-4.285c-0.008,0.05,2.038,5.852,0.893,8.929c-1.754,4.71-1.312,5.338-0.179,7.321
	c0,0-12.458,5.83-11.324,15.001s15.508,15.667,21.451,5.716c-2.211,17.275-11.736,29.576-15.681,22.597s-8.084-0.771-5.53,7.112
	s6.284,21.978,22.07,24.552c-8.6,8.896-8.185,13.318-2.657,25.228c-10.965-7.198-22.351,9.151-22.351,9.151L802.764,599.643z"/>
<path id="path4184" sodipodi:nodetypes="csasccscscsccssccc" inkscape:connector-curvature="0" fill="#FFFF99" d="M161.372,601.393
	c0,0,5.532-12.854,5.605-31.921c0.029-7.552-5.406-17.823-5.379-26.005c0.025-7.722,7.893-25.553,7.91-32.675
	c-14.037,7.594-7.794-22.929-7.884-23.733c-0.252-2.273-2.861-4.837-2.273-7.324c0.671-2.839,3.03-6.061,6.061-6.313
	c3.03-0.252,5.808-0.505,5.808-0.505c-5.717-2.767-13.139-3.711-17.678,0.758c-2.046,2.17-3.283,5.303-2.525,8.586
	c0.758,3.283,0.505,3.536,0.505,3.536s-3.231-10.026-5.051-11.364c-2.964-2.18-2.446-4.474-3.788-7.829c0,0-1.768,5.556-1.01,7.829
	c0.758,2.272,3.167,6.66,1.768,9.596c-4.389,4.979-5.017-2.527-4.798-7.828c0,0-4.546,2.777-4.546,5.303s2.525,4.546,0,6.313
	c-2.525,1.769-6.818,0.506-6.818,0.506c-0.526,0.728-4.906,2.455-5.303,11.194c-0.347,7.617,10.65,42.581,3.088,31.991
	c-11.704,8.279-0.285,25.637-0.164,37.274c0.188,17.865,0.831,31.881,2.126,32.863L161.372,601.393z"/>
<path id="path4186" sodipodi:nodetypes="cscscsscsaacaasccscsssccsscc" inkscape:connector-curvature="0" fill="#FFFF99" d="
	M109.854,608.797c0,0,5.484-14.949,5.331-31.474c-0.121-12.974-5.916-25.771-5.755-40.794c0.078-7.297,9.668-21.172,9.872-27.699
	c-20.211,9.357-7.854-23.975-5.912-25.107c6.061-3.536,8.586-3.536,8.586-3.536s-6.819-5.303-11.364-1.515
	c-4.546,3.788-5.809,2.777-5.809,2.777s7.829-5.303,8.082-8.586c0.252-3.283-4.293-7.324-4.041-10.102
	c0.253-2.778,2.021-3.788,2.021-3.788s-7.829,3.03-12.879,2.272s-11.026-3.393-13.132-8.081c-2.382-5.302,2.958-11.36,3.03-17.173
	c0.056-4.512-2.021-13.384-2.021-13.384s-1.707,5.528-3.788,7.323c-4.918,4.242-13.632,1.94-18.435,6.313
	c-3.482,3.17-5.809,8.081-5.809,12.879v4.799c-13.167-0.096-24.285-4.281-25.001-13.385c-0.505-9.344-0.505-17.173-5.051-21.718
	c-4.546-4.546-4.798-4.546-4.798-4.546s2.273-0.253,3.03,10.354c0.758,10.607-3.535,18.688-1.263,25.759
	c2.273,7.071,8.334,18.184,18.688,23.234s12.375,5.808,12.375,5.808c-9.936-5.479-18.477-0.915-26.336,1.705
	c0,0,9.109,1.318,11.129,4.602c2.021,3.282-5.934,10.36-2.146,11.118c1.134,0.227,17.186,6.239,17.742,21.251
	c0.354,9.531-6.22,13.258-16.858-9.329c-5.401,27.333,24.878,45.501,14.856,75.451c-4.655,13.912,0.098,25.075,0.098,25.075
	L109.854,608.797z"/>
<path id="path4188" sodipodi:nodetypes="cssssccsaacscc" inkscape:connector-curvature="0" fill="#FFFF99" d="M1449.762,418.173
	c0,0-11.616,8.954-11.616,18.045c0,9.092,3.443,10.984,2.434,21.591c-1.011,10.606-14.438,15.923-19.994,19.458
	c0.512,1.278,2.361,8.853-12.678,10.219c-4.559,13.209,0.243,14.396,8.478,27.035s2.74,26.729-10.113,17.769
	c-2.646,10.336,3.604,18.086,10.509,20.551c4.72,8.16-8.751,24.941-26.155,15.035c0.625,19.375,13.17,32.181,13.17,32.181
	l39.569-0.326c0,0-12.917-14.3-13.548-25.163c-0.543-9.348,12.218-7.382,10.265-33.631c7.492-5.666,12.945-9.938,12.582-17.571
	c-15.402,4.339-24.18-7.11-24.427-14.25c-0.372-10.753,9.465-27.839,9.822-29.985c1.516-9.092,10.604-11.806,14.734-18.529
	c2.326-3.788,1.738-9.846,5.556-12.122c3.066-1.829,5.768-2.698,10.688,0.702c-2.536-10.394-13.041-9.098-16.965-4.465
	c-1.876,2.215-2.321,8.394-2.321,8.394C1444.18,438.604,1445.322,432.389,1449.762,418.173L1449.762,418.173z"/>
<path id="path4190" sodipodi:nodetypes="cscacsssscsssssscsscaccc" inkscape:connector-curvature="0" fill="#FFFF99" d="
	M1583.923,599.715c0,0,21.577-10.582-0.125-33.344c6.528-5.116,4.12-11.619,4.944-20.979c0.571-6.497-12.707-15.506-6.356-37.245
	c4.411,13.058,12.881,13.233,22.408,3.353c7.588-8.822-11.943-13.406-11.591-17.625c0.602-7.198,0.982-12.052,1.011-13.088
	c0.157-5.826-6.349-10.74-6.429-10.714c0,0,3.8-0.807,5.536-0.179c2.696,0.976,6.429,5.714,6.429,5.714s-2.5-3.75-1.786-6.606
	c0.715-2.857,3.215-7.144,6.965-9.821c3.75-2.679,6.25-5,5.535-8.572c-0.714-3.571-2.321-7.321-1.25-9.106
	c1.071-1.786,2.5-3.036,2.5-3.036s-2.679,2.143-0.535,5.893c2.143,3.75,5.714,9.107,4.106,13.572
	c-1.606,4.464-2.678,6.964-1.785,10.714s4.42,10.681,9.107,10.714c1.266,0.01,1.785,0.536,2.5-2.856
	c0.714-3.394-1.429-8.571,0.714-10.536c2.144-1.964,4.644-2.5,4.644-2.5s-3.572,4.107-2.5,6.429
	c1.071,2.321,3.035,7.143,1.606,10.357l-1.429,3.214c0,0,5.356-2.375,8.036-1.785c2.778,0.611,6.785,5.178,6.785,5.178
	c-1.712-0.018-10.106,7.559-5.237,18.309c2.062,4.553,8.226,11.56,24.958-3.111c-1.455,18.551-22.553,23.644-14.792,35.769
	c-1.698,14.55-9.7,24.008-17.103,25.691c-4.723,20.869,11.768,23.536,24.135,16.262c-1.439,13.7-27.947,19.253-28.68,20.652
	L1583.923,599.715z"/>
<path id="path4192" sodipodi:nodetypes="casccscsccccc" inkscape:connector-curvature="0" fill="#FFFF99" d="M1364.687,490.989
	c8.505-18.163,17.153-17.298,21.492-12.703c-1.214-4.645-5.536-10-10.536-9.821s-10.893,2.5-12.678-0.356
	c-1.97-6.625,2.31-9.714,8.571-12.144c-0.017,0.113-7.21-2.375-10.357,0.536c-3.531,3.266-5.356,3.929-5.357,3.929
	c0,0,2.857-5.179-2.143-9.644c-5-4.464-6.429-3.393-6.429-3.393s3.083,7.021,2.321,10.536c-0.122,3.354-1.813,10.366-4.383,19.584
	c-1.964,7.045-4.72,14.342-16.971,8.144c-2.191,7.337,13.719,24.192,8.505,42.524c-2.822,9.92-13.409,25.225-25.518,25.945
	c-2.007,8.428,4.036,21.767,10.093,27.246c-0.818,6.568-5.981,17.137-4.803,19.967l53.75-0.179c0,0,3.378-2.347,0.995-9.263
	c-4.104-17.013,7.288-25.23,7.288-25.23s-13.228-8.642-6.055-23.93c8.069-2.593,17.879-9.517,15.425-23.785
	c-2.31,6.777-7.066,9.805-13.986,8.507S1356.182,509.152,1364.687,490.989z"/>
<path id="path4196" sodipodi:nodetypes="csasccscscsccssccc" inkscape:connector-curvature="0" fill="#FFFF99" d="M1823.854,599.135
	c0,0-6.791-12.873-6.396-27.474c19.76,16.17,2.387-7.351,7.674-19.754c7.619-8.774-7.844-10.388-5.821-17.931
	c7.483-2.004,6.656-12.177,6.795-17.075c0.144-5.073-8.441-7.915,0.4-13.929s0.489-16.082,0.549-16.614
	c0.252-2.273,2.86-4.836,2.272-7.324c-0.671-2.839-3.03-6.061-6.062-6.313c-3.03-0.252-5.808-0.505-5.808-0.505
	c5.718-2.767,13.139-3.711,17.678,0.758c2.047,2.17,3.282,5.303,2.525,8.586c-0.758,3.283-0.505,3.536-0.505,3.536
	s3.23-10.026,5.051-11.364c2.964-2.18,2.445-4.474,3.787-7.829c0,0,1.769,5.556,1.011,7.829c-0.758,2.272-3.167,6.66-1.768,9.596
	c4.389,4.979,5.017-2.527,4.798-7.828c0,0,4.546,2.777,4.546,5.303s-2.525,4.546,0,6.313c2.525,1.769,6.818,0.506,6.818,0.506
	c4.635,3.643,5.921,5.794,6.066,9.759s-18.61,6.638-5.174,12.884c5.694,22.384-7.848,15.413-8.23,27.85
	c-0.43,13.945,14.186,19.912,5.788,45.435c-8.52-4.307-1.528,16.435-2.408,17.102L1823.854,599.135z"/>
<path id="path4198" sodipodi:nodetypes="cscscsscsaacaasccscsssccsscc" inkscape:connector-curvature="0" fill="#FFFF99" d="
	M1869.918,600.396c0,0-3.986-24.619-2.451-42.562c7.688,27.229,11.056,4.529,7.021-9.668c0.713-9.424,6.995-13.192,8.346-21.999
	c2.675-17.438-4.435-20.432-10.667-24.333c1.595-14.025,13.766-11.209,3.122-19.012c-6.062-3.535-8.587-3.535-8.587-3.535
	s6.819-5.304,11.364-1.516c4.546,3.788,5.809,2.778,5.809,2.778s-7.828-5.304-8.081-8.587c-0.253-3.282,4.293-7.323,4.041-10.101
	c-0.253-2.778-2.021-3.789-2.021-3.789s7.828,3.031,12.879,2.273s11.026-3.393,13.133-8.081c2.382-5.303-2.959-11.36-3.031-17.173
	c-0.056-4.512,2.021-13.385,2.021-13.385s1.707,5.528,3.788,7.324c4.919,4.242,13.633,1.94,18.436,6.313
	c3.482,3.17,5.809,8.081,5.809,12.879v4.798c13.167-0.095,24.284-4.28,25.001-13.384c0.505-9.344,0.505-17.173,5.051-21.719
	s4.798-4.546,4.798-4.546s-2.272-0.252-3.03,10.354s3.536,18.688,1.263,25.759c-2.272,7.071-8.334,18.183-18.688,23.233
	c-10.354,5.051-12.375,5.809-12.375,5.809c9.937-5.479,17.93-1.849,26.265-3.03c0,0-9.608,4.775-11.629,8.058
	c-2.021,3.283-5.544,4.569-9.332,5.327c-0.529,0.105-1.158,2.366-1.849,6.177c-1.159,13.65-21.091,15.43-11.837,22.195
	c-5.457,14.709,10.44,13.285,6.69,20.066c-6.334,10.424,8.022,13.271,12.294,9.712c-0.594,25.034-14.949,17.797-16.661,37.854
	c-0.824,9.669-1.332,16.013-1.332,16.013L1869.918,600.396z"/>
<path id="path4218" sodipodi:nodetypes="cscacsssscsssssscsscaccc" inkscape:connector-curvature="0" fill="#FFFF99" d="
	M965.128,599.911c0,0,9.27-49.112-5.101-67.456c8.362,3.902,18.15,3.03,12.432-10.635c20.148-11.267-10.564-9.886-10.013-23.033
	c10.472,4.507,15.015-4.606,15.244-8.086c0.38-5.774-3.446-5.302-4.46-9.083c0.157-5.826-6.349-10.741-6.429-10.715
	c0,0,3.8-0.807,5.536-0.178c2.696,0.975,6.429,5.714,6.429,5.714s-2.5-3.75-1.786-6.607c0.715-2.856,1.786-6.964,5.536-9.643
	s18.571-5,17.857-8.571c-0.715-3.571-2.321-7.321-1.25-9.107c1.071-1.785,2.5-3.035,2.5-3.035s-2.679,2.143-0.536,5.893
	s5.715,9.107,4.107,13.571s-2.679,6.964-1.786,10.714c0.894,3.75,4.42,10.681,9.107,10.715c1.266,0.01,1.786,0.535,2.5-2.857
	s-1.429-8.571,0.714-10.535c2.144-1.965,4.644-2.5,4.644-2.5s-3.571,4.106-2.5,6.428c1.071,2.322,3.035,7.144,1.606,10.357
	l-1.428,3.215c0,0,5.355-2.376,8.035-1.786c2.779,0.611,6.786,5.179,6.786,5.179c-1.711-0.018-5.988,3.436-7.513,14.338
	c-0.653,4.668-4.016,13.268,2.968,14.654c-0.631,5.887-11.291,15.832-11.871,22.182c-0.64,6.996-0.524,17.283,13.442,19.902
	c-0.698,5.237-9.812,5.358-7.158,26.535c-9.252,5.237-3.861,14.298-4.398,15.325L965.128,599.911z"/>
<path id="path4220" sodipodi:nodetypes="cssssccsaacscc" inkscape:connector-curvature="0" fill="#FFFF99" d="M946.76,468.195
	c0,0,3.697,2.851,3.697,5.745c0,2.894-1.096,3.496-0.774,6.873c0.321,3.376,4.597,5.068,6.365,6.194
	c1.769,1.125,3.568,1.319,4.035,3.253c0,0-6.331,0.718-0.332,11.354s14.173,13.484,14.173,13.484s-31.725,9.735-20.824,22.818
	s5.052,18.435,5.052,18.435l21.28,15.132l-22.779,36.155l-12.597-0.104c0,0,4.697-13.116,5.597-28.671
	c0.287-4.967-11.49-11.489-3.677-17.157c6.639-18.077-7.47-22.818-1.226-39.707c2.146-5.061,11.323-9.91,11.5-13.5
	c-10-3.25-5.66-20.27-5.765-20.899c-0.482-2.895-3.376-3.759-4.69-5.899c-0.741-1.205-0.554-3.134-1.769-3.858
	c-0.977-0.582-1.837-0.859-3.402,0.224c0.808-3.309,4.151-2.896,5.4-1.422c0.597,0.706,0.739,2.672,0.739,2.672
	C948.536,474.7,948.173,472.721,946.76,468.195L946.76,468.195z"/>
<path id="path4222" sodipodi:nodetypes="cssssccsaacscc" inkscape:connector-curvature="0" fill="#FFFF99" d="M1044.157,475.267
	c0,0-2.661,2.052-2.661,4.135s0.789,2.517,0.558,4.946c-0.231,2.431-3.308,3.648-4.581,4.458c-1.273,0.811-2.568,0.95-2.904,2.342
	c0,0-8.686,11.936-4.495,14.205s2.111,11.588,2.111,11.588s1.904,9.886-7.349,16.868c1.048,7.856,8.091,5.873,6.634,21.647
	s-12.046,17.105-12.046,17.105l4.189,19.728l0.194,15.298l9.065-0.075c0,0,6.19-9.606,6.977-20.636
	c-6.11-0.873-9.029-5.049-8.554-11.693c0.32-4.482,5.411-2.971,5.183-18.151c0.37-5.165,4.395-4.598,4.769-9.781
	c-8.555-5.938-3.079-13.688-2.804-17.484c0.323-4.473,13.682-10.36,13.977-14.399c-6.809,2.495-19.37,7.62-14.307-14.901
	c5.229-5.412,3.294-10.818,3.363-11.232c0.347-2.083,2.429-2.705,3.375-4.245c0.533-0.868,0.398-2.256,1.273-2.777
	c0.702-0.419,1.321-0.618,2.448,0.16c-0.581-2.381-2.987-2.084-3.887-1.022c-0.43,0.508-0.532,1.923-0.532,1.923
	c-1.275-3.323-1.014-4.747,0-8.004H1044.157z"/>
<path fill="#FFDE00" d="M864.128,591.206"/>
</svg>
